<?xml version="1.0" encoding="UTF-8" standalone="no"?>
<!-- Created with Inkscape (http://www.inkscape.org/) -->

<svg
   version="1.1"
   id="svg2"
   width="2431.9868"
   height="1133.8533"
   viewBox="0 0 2431.9868 1133.8533"
   sodipodi:docname="01_ISEL-Logotipo-RGB_Horizontal-Acro╠ünimo-900┬║.eps"
   xmlns:inkscape="http://www.inkscape.org/namespaces/inkscape"
   xmlns:sodipodi="http://sodipodi.sourceforge.net/DTD/sodipodi-0.dtd"
   xmlns="http://www.w3.org/2000/svg"
   xmlns:svg="http://www.w3.org/2000/svg">
  <defs
     id="defs6" />
  <sodipodi:namedview
     id="namedview4"
     pagecolor="#ffffff"
     bordercolor="#000000"
     borderopacity="0.25"
     inkscape:showpageshadow="2"
     inkscape:pageopacity="0.0"
     inkscape:pagecheckerboard="0"
     inkscape:deskcolor="#d1d1d1" />
  <g
     id="g8"
     inkscape:groupmode="layer"
     inkscape:label="ink_ext_XXXXXX"
     transform="matrix(1.3333333,0,0,-1.3333333,0,1133.8533)">
    <g
       id="g10"
       transform="scale(0.1)">
      <path
         d="M 8718.49,4454.45 H 6491.26 v 578.49 l 231.4,231.4 h 1793.35 v 404.95 H 6980.08 c -26.85,0 -53.15,-5.33 -77.49,-15.41 -24.33,-10.08 -46.7,-24.9 -65.68,-43.89 L 6145.62,4918.7 c -18.99,-18.99 -33.82,-41.36 -43.9,-65.69 -10.07,-24.33 -15.41,-50.63 -15.41,-77.48 v -523.56 c 0,-55.91 22.66,-106.53 59.31,-143.17 36.64,-36.64 87.25,-59.3 143.16,-59.3 H 8516.01 V 3471 l -231.4,-231.4 h -2198.3 v -404.95 h 1940.88 c 26.85,0 53.15,5.33 77.48,15.41 24.34,10.08 46.71,24.9 65.69,43.89 l 691.3,691.29 c 18.98,18.99 33.8,41.36 43.89,65.69 10.08,24.33 15.41,50.63 15.41,77.48 v 523.56 c 0,55.91 -22.66,106.53 -59.3,143.17 -36.65,36.64 -87.27,59.31 -143.17,59.31"
         style="fill:#f03837;fill-opacity:1;fill-rule:nonzero;stroke:none"
         id="path12" />
      <path
         d="m 4871.47,3239.66 v 1535.87 c 0,26.85 -5.34,53.15 -15.42,77.48 -10.08,24.33 -24.9,46.7 -43.89,65.69 l -691.29,691.29 c -18.99,18.99 -41.36,33.81 -65.69,43.89 -24.34,10.08 -50.63,15.41 -77.48,15.41 H 2846.72 v -404.95 h 1388.39 l 231.4,-231.4 V 3239.6 H 2846.72 v -404.95 h 2834.64 v 404.95 l -809.89,0.06"
         style="fill:#f03837;fill-opacity:1;fill-rule:nonzero;stroke:none"
         id="path14" />
      <path
         d="m 13201.8,3239.6 -231.4,231.4 v 2198.29 h -404.9 V 3728.41 c 0,-26.85 5.3,-53.15 15.4,-77.48 10.1,-24.33 24.9,-46.7 43.9,-65.69 l 691.3,-691.29 c 19,-18.99 41.3,-33.81 65.7,-43.89 24.3,-10.08 50.6,-15.41 77.5,-15.41 h 1940.8 v 404.95 h -2198.3"
         style="fill:#f03837;fill-opacity:1;fill-rule:nonzero;stroke:none"
         id="path16" />
      <path
         d="M 11493.5,4716.53 11207.2,5002.87 9730.85,3526.55 V 5669.29 H 9325.91 V 3728.41 c 0,-26.85 5.33,-53.15 15.41,-77.48 10.08,-24.34 24.91,-46.7 43.89,-65.69 l 691.29,-691.29 c 19,-18.99 41.4,-33.81 65.7,-43.89 24.3,-10.08 50.6,-15.41 77.5,-15.41 h 1940.9 v 404.95 h -2144 l 1476.9,1476.93"
         style="fill:#f03837;fill-opacity:1;fill-rule:nonzero;stroke:none"
         id="path18" />
    </g>
  </g>
</svg>
