<?xml version="1.0" encoding="UTF-8" standalone="no"?>
<!-- Created with Inkscape (http://www.inkscape.org/) -->

<svg
   version="1.1"
   id="svg2"
   width="3006.28"
   height="1133.8533"
   viewBox="0 0 3006.28 1133.8533"
   sodipodi:docname="01_ISEL-Logotipo-RGB_Horizontal-Compacto-900┬║.eps"
   xmlns:inkscape="http://www.inkscape.org/namespaces/inkscape"
   xmlns:sodipodi="http://sodipodi.sourceforge.net/DTD/sodipodi-0.dtd"
   xmlns="http://www.w3.org/2000/svg"
   xmlns:svg="http://www.w3.org/2000/svg">
  <defs
     id="defs6" />
  <sodipodi:namedview
     id="namedview4"
     pagecolor="#ffffff"
     bordercolor="#000000"
     borderopacity="0.25"
     inkscape:showpageshadow="2"
     inkscape:pageopacity="0.0"
     inkscape:pagecheckerboard="0"
     inkscape:deskcolor="#d1d1d1" />
  <g
     id="g8"
     inkscape:groupmode="layer"
     inkscape:label="ink_ext_XXXXXX"
     transform="matrix(1.3333333,0,0,-1.3333333,0,1133.8533)">
    <g
       id="g10"
       transform="scale(0.1)">
      <path
         d="M 8718.48,4454.45 H 6491.26 v 578.49 l 231.4,231.4 H 8516 v 404.95 H 6980.07 c -26.85,0 -53.15,-5.33 -77.48,-15.41 -24.33,-10.08 -46.7,-24.9 -65.69,-43.89 L 6145.61,4918.7 c -18.98,-18.99 -33.81,-41.36 -43.89,-65.69 -10.08,-24.33 -15.41,-50.63 -15.41,-77.48 v -523.56 c 0,-55.91 22.66,-106.53 59.3,-143.17 36.64,-36.64 87.26,-59.3 143.17,-59.3 H 8516 V 3471 L 8284.6,3239.6 H 6086.31 v -404.95 h 1940.88 c 26.85,0 53.15,5.33 77.48,15.41 24.33,10.08 46.7,24.9 65.69,43.89 l 691.29,691.29 c 18.99,18.99 33.81,41.36 43.89,65.69 10.08,24.33 15.41,50.63 15.41,77.48 v 523.56 c 0,55.91 -22.66,106.53 -59.3,143.17 -36.64,36.64 -87.26,59.31 -143.17,59.31"
         style="fill:#f03837;fill-opacity:1;fill-rule:nonzero;stroke:none"
         id="path12" />
      <path
         d="m 4871.46,3239.66 v 1535.87 c 0,26.85 -5.33,53.15 -15.41,77.48 -10.08,24.33 -24.91,46.7 -43.9,65.69 l -691.29,691.29 c -18.98,18.99 -41.35,33.81 -65.68,43.89 -24.34,10.08 -50.64,15.41 -77.49,15.41 H 2846.71 v -404.95 h 1388.4 l 231.4,-231.4 V 3239.6 h -1619.8 v -404.95 h 2834.65 v 404.95 l -809.9,0.06"
         style="fill:#f03837;fill-opacity:1;fill-rule:nonzero;stroke:none"
         id="path14" />
      <path
         d="m 13201.8,3239.6 -231.4,231.4 v 2198.29 h -404.9 V 3728.41 c 0,-26.85 5.3,-53.15 15.4,-77.48 10.1,-24.33 24.9,-46.7 43.9,-65.69 l 691.3,-691.29 c 19,-18.99 41.3,-33.81 65.7,-43.89 24.3,-10.08 50.6,-15.41 77.5,-15.41 h 1940.8 v 404.95 h -2198.3"
         style="fill:#f03837;fill-opacity:1;fill-rule:nonzero;stroke:none"
         id="path16" />
      <path
         d="M 11493.5,4716.53 11207.2,5002.87 9730.85,3526.55 V 5669.29 H 9325.9 V 3728.41 c 0,-26.85 5.34,-53.15 15.41,-77.48 10.09,-24.34 24.91,-46.7 43.9,-65.69 l 691.29,-691.29 c 19,-18.99 41.4,-33.81 65.7,-43.89 24.3,-10.08 50.6,-15.41 77.5,-15.41 h 1940.8 v 404.95 h -2143.9 l 1476.9,1476.93"
         style="fill:#f03837;fill-opacity:1;fill-rule:nonzero;stroke:none"
         id="path18" />
      <path
         d="m 16213.8,5573.12 h 50.1 v -320.55 h -50.1 z m -3.8,96.17 h 57.7 v -57.7 h -57.7 v 57.7"
         style="fill:#f03837;fill-opacity:1;fill-rule:nonzero;stroke:none"
         id="path20" />
      <path
         d="m 16361.3,5573.12 h 39.8 v -28.85 h 10.9 l 33.3,28.85 h 147.4 l 66.1,-66.03 v -254.52 h -49.4 l 0.7,234.64 -39.1,39.76 h -111.6 l -48.7,-41.04 0.6,-233.36 h -50 v 320.55"
         style="fill:#f03837;fill-opacity:1;fill-rule:nonzero;stroke:none"
         id="path22" />
      <path
         d="m 16747.3,5298.08 h 207.7 l 26.9,27.57 v 39.75 l -26.9,27.57 h -156.5 l -54.5,52.57 v 73.73 l 53.9,53.85 h 216.1 l 1.2,-46.15 H 16821 l -27.6,-26.29 v -35.26 l 26.9,-26.93 h 157.1 l 53.2,-53.86 0.7,-78.21 -53.2,-53.85 h -229.6 l -1.2,45.51"
         style="fill:#f03837;fill-opacity:1;fill-rule:nonzero;stroke:none"
         id="path24" />
      <path
         d="m 17139,5291.03 v 236.58 h -64.1 l -0.7,45.51 h 64.1 v 83.35 h 50 v -83.35 h 118.7 l -0.7,-45.51 h -118.6 v -216.7 l 12.2,-12.18 h 109.6 v -46.16 h -132.1 l -38.4,38.46"
         style="fill:#f03837;fill-opacity:1;fill-rule:nonzero;stroke:none"
         id="path26" />
      <path
         d="m 17375.5,5573.12 h 50.1 v -320.55 h -50.1 z m -3.8,96.17 h 57.7 v -57.7 h -57.7 v 57.7"
         style="fill:#f03837;fill-opacity:1;fill-rule:nonzero;stroke:none"
         id="path28" />
      <path
         d="m 17549.3,5291.03 v 236.58 h -64.1 l -0.7,45.51 h 64.1 v 83.35 h 50.1 v -83.35 h 118.6 l -0.7,-45.51 H 17598 v -216.7 l 12.2,-12.18 h 109.6 v -46.16 h -132 l -38.5,38.46"
         style="fill:#f03837;fill-opacity:1;fill-rule:nonzero;stroke:none"
         id="path30" />
      <path
         d="m 17783.3,5319.25 v 253.87 h 48.7 v -235.28 l 39.8,-39.11 h 100.6 l 47.5,41.03 v 233.36 h 50 v -320.55 h -39.8 l -0.6,28.85 h -9.6 l -34,-28.85 h -136.6 l -66,66.68"
         style="fill:#f03837;fill-opacity:1;fill-rule:nonzero;stroke:none"
         id="path32" />
      <path
         d="m 18193.6,5291.03 v 236.58 h -64.1 l -0.6,45.51 h 64.1 v 83.35 h 50 v -83.35 h 118.6 l -0.7,-45.51 h -118.6 v -216.7 l 12.2,-12.18 h 109.6 v -46.16 h -132 l -38.5,38.46"
         style="fill:#f03837;fill-opacity:1;fill-rule:nonzero;stroke:none"
         id="path34" />
      <path
         d="m 18647.5,5298.73 44.9,44.87 v 138.49 l -44.9,44.88 H 18518 l -44.9,-44.24 V 5343.6 l 45.5,-44.87 z m -223.1,25.64 v 176.31 l 71.2,72.44 h 173.7 l 72.4,-71.8 v -176.95 l -72.4,-71.8 h -173.7 l -71.2,71.8"
         style="fill:#f03837;fill-opacity:1;fill-rule:nonzero;stroke:none"
         id="path36" />
      <path
         d="m 16207.4,4492.11 h 207.8 l 26.9,27.57 v 39.75 l -26.9,27.57 h -156.5 l -54.5,52.57 v 73.73 l 53.9,53.85 h 216 l 1.3,-46.16 h -194.2 l -27.6,-26.28 v -35.26 l 26.9,-26.93 h 157.1 l 53.2,-53.86 0.7,-78.21 -53.3,-53.86 h -229.5 l -1.3,45.52"
         style="fill:#f03837;fill-opacity:1;fill-rule:nonzero;stroke:none"
         id="path38" />
      <path
         d="m 16570.3,4513.27 v 253.88 h 48.7 v -235.29 l 39.8,-39.1 h 100.6 l 47.5,41.03 v 233.36 h 50 v -320.56 h -39.8 l -0.6,28.85 h -9.6 l -34,-28.85 h -136.6 l -66,66.68"
         style="fill:#f03837;fill-opacity:1;fill-rule:nonzero;stroke:none"
         id="path40" />
      <path
         d="m 17164,4492.76 44.9,44.87 v 138.49 l -44.9,44.87 h -104.5 l -55.8,-46.8 v -181.43 z m -209.7,274.39 h 39.8 l 0.6,-33.97 h 10.9 l 40.4,33.97 h 141.1 l 71.1,-71.8 V 4518.4 l -71.1,-71.81 h -182.8 v -128.22 h -50 v 448.78"
         style="fill:#f03837;fill-opacity:1;fill-rule:nonzero;stroke:none"
         id="path42" />
      <path
         d="m 17604.4,4626.11 -0.6,50.01 -44.9,44.87 h -121.8 l -44.9,-44.87 0.7,-50.01 z m -260.9,-107.71 v 176.31 l 71.2,72.44 h 166.6 l 71.9,-71.8 v -115.4 h -261 v -42.32 l 44.9,-44.87 h 192.3 v -46.17 h -214.7 l -71.2,71.81"
         style="fill:#f03837;fill-opacity:1;fill-rule:nonzero;stroke:none"
         id="path44" />
      <path
         d="m 17737.1,4767.15 h 39.8 l 0.6,-28.2 h 10.3 l 32,28.2 h 130.8 v -46.16 h -116 l -48.1,-39.75 0.6,-234.65 h -50 v 320.56"
         style="fill:#f03837;fill-opacity:1;fill-rule:nonzero;stroke:none"
         id="path46" />
      <path
         d="m 17995.5,4767.15 h 50 v -320.56 h -50 z m -3.8,96.17 h 57.7 v -57.7 h -57.7 v 57.7"
         style="fill:#f03837;fill-opacity:1;fill-rule:nonzero;stroke:none"
         id="path48" />
      <path
         d="m 18360.3,4492.76 44.9,44.87 v 138.49 l -44.9,44.87 h -129.5 l -44.9,-44.24 v -139.12 l 45.5,-44.87 z m -223.1,25.64 v 176.31 l 71.2,72.44 h 173.7 l 72.4,-71.8 V 4518.4 l -72.4,-71.81 h -173.7 l -71.2,71.81"
         style="fill:#f03837;fill-opacity:1;fill-rule:nonzero;stroke:none"
         id="path50" />
      <path
         d="m 18546.2,4767.15 h 39.8 l 0.6,-28.2 h 10.3 l 32,28.2 h 130.8 v -46.16 h -116 l -48.1,-39.75 0.6,-234.65 h -50 v 320.56"
         style="fill:#f03837;fill-opacity:1;fill-rule:nonzero;stroke:none"
         id="path52" />
      <path
         d="m 19202.7,4492.76 55.2,46.79 v 181.44 h -160.3 l -44.9,-44.24 v -139.12 l 45.5,-44.87 z m -198.7,25.64 v 176.31 l 71.2,72.44 h 182.7 v 128.23 h 49.3 v -448.79 h -39.7 v 34.62 h -10.9 l -40.4,-34.62 h -141 l -71.2,71.81"
         style="fill:#f03837;fill-opacity:1;fill-rule:nonzero;stroke:none"
         id="path54" />
      <path
         d="m 19663.7,4626.11 -0.6,50.01 -44.9,44.87 h -121.8 l -44.9,-44.87 0.6,-50.01 z m -260.9,-107.71 v 176.31 l 71.1,72.44 h 166.7 l 71.8,-71.8 v -115.4 h -260.9 v -42.32 l 44.9,-44.87 h 192.3 v -46.17 h -214.8 l -71.1,71.81"
         style="fill:#f03837;fill-opacity:1;fill-rule:nonzero;stroke:none"
         id="path56" />
      <path
         d="m 16469,3820.14 -0.6,50 -44.9,44.88 h -121.8 l -44.9,-44.88 0.6,-50 z m -260.9,-107.71 v 176.3 l 71.1,72.45 h 166.7 l 71.8,-71.81 v -115.4 h -260.9 v -42.31 l 44.9,-44.88 h 192.3 v -46.16 h -214.8 l -71.1,71.81"
         style="fill:#f03837;fill-opacity:1;fill-rule:nonzero;stroke:none"
         id="path58" />
      <path
         d="m 16601.7,3961.18 h 39.8 v -28.85 h 10.9 l 33.3,28.85 h 147.5 l 66,-66.04 v -254.52 h -49.4 l 0.7,234.65 -39.1,39.75 h -111.6 l -48.7,-41.03 0.6,-233.37 h -50 v 320.56"
         style="fill:#f03837;fill-opacity:1;fill-rule:nonzero;stroke:none"
         id="path60" />
      <path
         d="m 17187.1,3686.78 55.7,46.8 -0.6,181.44 h -160.3 l -44.9,-44.24 v -139.12 l 45.6,-44.88 z M 17012,3557.92 h 205.8 l 24.4,25 v 83.99 h -9.6 l -31.4,-26.29 h -141.7 l -71.2,71.81 v 176.3 l 71.2,72.45 h 232.1 v -396.85 l -52,-51.94 h -228.2 l 0.6,45.53"
         style="fill:#f03837;fill-opacity:1;fill-rule:nonzero;stroke:none"
         id="path62" />
      <path
         d="m 17644.8,3820.14 -0.6,50 -44.9,44.88 h -121.8 l -44.9,-44.88 0.7,-50 z m -260.9,-107.71 v 176.3 l 71.2,72.45 h 166.6 l 71.8,-71.81 v -115.4 h -260.9 v -42.31 l 44.9,-44.88 h 192.3 v -46.16 h -214.7 l -71.2,71.81"
         style="fill:#f03837;fill-opacity:1;fill-rule:nonzero;stroke:none"
         id="path64" />
      <path
         d="m 17777.5,3961.18 h 39.8 v -28.85 h 10.9 l 33.3,28.85 h 147.5 l 66,-66.04 v -254.52 h -49.3 l 0.6,234.65 -39.1,39.75 h -111.6 l -48.7,-41.03 0.6,-233.37 h -50 v 320.56"
         style="fill:#f03837;fill-opacity:1;fill-rule:nonzero;stroke:none"
         id="path66" />
      <path
         d="m 18173.7,4089.41 h 48.8 v -152.59 h 10.9 l 28.2,24.36 h 142.9 l 66.1,-66.04 v -254.52 h -49.4 l 0.7,234.65 -40.4,39.75 H 18275 l -52.5,-44.24 v -230.16 h -48.8 v 448.79"
         style="fill:#f03837;fill-opacity:1;fill-rule:nonzero;stroke:none"
         id="path68" />
      <path
         d="m 18741.1,3686.14 55.2,46.8 v 60.26 h -165.4 l -32.1,-31.41 0.6,-48.08 26.3,-27.57 z m -191,8.33 -0.7,85.91 59.7,58.99 h 187.2 l 0.6,40.39 -34.6,35.9 h -171.8 v 45.52 h 192.9 l 62.2,-62.19 v -258.37 h -39.1 v 33.34 h -10.2 l -40.4,-33.34 h -152.6 l -53.2,53.85"
         style="fill:#f03837;fill-opacity:1;fill-rule:nonzero;stroke:none"
         id="path70" />
      <path
         d="m 18940.5,3961.18 h 39.8 l 0.6,-28.21 h 10.3 l 32,28.21 h 130.8 v -46.16 h -116 l -48.1,-39.75 0.6,-234.65 h -50 v 320.56"
         style="fill:#f03837;fill-opacity:1;fill-rule:nonzero;stroke:none"
         id="path72" />
      <path
         d="m 19198.9,3961.18 h 50 v -320.56 h -50 z m -3.9,96.17 h 57.7 v -57.7 h -57.7 v 57.7"
         style="fill:#f03837;fill-opacity:1;fill-rule:nonzero;stroke:none"
         id="path74" />
      <path
         d="m 19522,3686.14 55.1,46.8 v 60.26 h -165.4 l -32,-31.41 0.6,-48.08 26.3,-27.57 z m -191.1,8.33 -0.6,85.91 59.6,58.99 h 187.2 l 0.7,40.39 -34.6,35.9 h -171.9 v 45.52 h 193 l 62.2,-62.19 v -258.37 h -39.1 v 33.34 h -10.3 l -40.3,-33.34 h -152.6 l -53.3,53.85"
         style="fill:#f03837;fill-opacity:1;fill-rule:nonzero;stroke:none"
         id="path76" />
      <path
         d="m 16406.8,2880.81 55.2,46.8 v 181.44 h -160.3 l -44.9,-44.24 v -139.12 l 45.5,-44.88 z m -198.7,25.64 v 176.31 l 71.1,72.45 h 182.8 v 128.22 h 49.3 v -448.78 h -39.7 v 34.62 h -10.9 l -40.4,-34.62 h -141.1 l -71.1,71.8"
         style="fill:#f03837;fill-opacity:1;fill-rule:nonzero;stroke:none"
         id="path78" />
      <path
         d="m 16867.8,3014.16 -0.7,50.01 -44.8,44.88 h -121.8 l -44.9,-44.88 0.6,-50.01 z m -260.9,-107.71 v 176.31 l 71.1,72.45 h 166.7 l 71.8,-71.81 V 2968 h -260.9 v -42.31 l 44.9,-44.88 h 192.3 v -46.16 H 16678 l -71.1,71.8"
         style="fill:#f03837;fill-opacity:1;fill-rule:nonzero;stroke:none"
         id="path80" />
      <path
         d="m 17228.7,3237.27 h -61.5 l -1.3,46.16 h 111.6 v -448.78 h -49.4 l 0.6,402.62"
         style="fill:#f03837;fill-opacity:1;fill-rule:nonzero;stroke:none"
         id="path82" />
      <path
         d="m 17378.8,3155.21 h 50 v -320.56 h -50 z m -3.9,96.16 h 57.7 v -57.7 h -57.7 v 57.7"
         style="fill:#f03837;fill-opacity:1;fill-rule:nonzero;stroke:none"
         id="path84" />
      <path
         d="m 17519.8,2880.17 h 207.7 l 26.9,27.57 v 39.74 l -26.9,27.57 h -156.4 l -54.5,52.57 v 73.73 l 53.8,53.86 h 216.1 l 1.3,-46.16 h -194.3 l -27.5,-26.29 v -35.26 l 26.9,-26.93 h 157.1 l 53.2,-53.85 0.6,-78.22 -53.2,-53.85 h -229.5 l -1.3,45.52"
         style="fill:#f03837;fill-opacity:1;fill-rule:nonzero;stroke:none"
         id="path86" />
      <path
         d="m 18098.1,2880.81 45.5,44.88 -0.6,138.48 -44.9,44.88 h -104.5 l -55.8,-46.8 0.6,-181.44 z m -209,402.62 h 48.7 v -155.15 h 10.9 l 30.8,26.93 h 141 l 71.8,-71.81 -0.6,-176.95 -71.2,-71.8 h -231.4 v 448.78"
         style="fill:#f03837;fill-opacity:1;fill-rule:nonzero;stroke:none"
         id="path88" />
      <path
         d="m 18501.4,2880.81 44.8,44.88 v 138.48 l -44.8,44.88 h -129.5 l -44.9,-44.24 v -139.12 l 45.5,-44.88 z m -223.2,25.64 v 176.31 l 71.2,72.45 h 173.8 l 72.4,-71.81 v -176.95 l -72.4,-71.8 h -173.8 l -71.2,71.8"
         style="fill:#f03837;fill-opacity:1;fill-rule:nonzero;stroke:none"
         id="path90" />
      <path
         d="m 18862.9,2880.17 55.2,46.8 v 60.26 h -165.4 l -32.1,-31.41 0.7,-48.08 26.2,-27.57 z m -191,8.33 -0.7,85.91 59.7,58.99 h 187.2 l 0.6,40.39 -34.6,35.9 h -171.8 v 45.52 h 193 l 62.1,-62.19 v -258.37 h -39.1 v 33.34 h -10.2 l -40.4,-33.34 h -152.6 l -53.2,53.85"
         style="fill:#f03837;fill-opacity:1;fill-rule:nonzero;stroke:none"
         id="path92" />
    </g>
  </g>
</svg>
