<?xml version="1.0" standalone="no"?>
<!DOCTYPE svg PUBLIC "-//W3C//DTD SVG 20010904//EN"
 "http://www.w3.org/TR/2001/REC-SVG-20010904/DTD/svg10.dtd">
<svg version="1.0" xmlns="http://www.w3.org/2000/svg"
 width="168.000000pt" height="168.000000pt" viewBox="0 0 168.000000 168.000000"
 preserveAspectRatio="xMidYMid meet">

<g transform="translate(0.000000,168.000000) scale(0.100000,-0.100000)"
fill="#000000" stroke="none">
<path d="M300 1283 c-38 -16 -39 -29 -40 -380 l0 -343 85 0 85 0 0 115 0 116
57 -3 56 -3 70 -112 70 -113 62 0 c34 0 69 6 78 12 17 13 1 44 -113 225 -13
20 -10 26 37 77 59 64 81 130 69 210 -9 58 -58 131 -114 171 l-44 30 -171 2
c-95 1 -179 -1 -187 -4z m325 -117 c51 -22 77 -69 72 -133 -7 -92 -57 -124
-189 -121 l-83 1 90 6 c50 4 100 12 112 19 60 33 81 118 42 173 -30 43 -54 52
-154 59 l-90 7 83 1 c52 1 95 -3 117 -12z"/>
<path d="M880 915 l0 -355 275 0 275 0 0 75 0 74 -142 3 -143 3 -3 278 -2 277
-130 0 -130 0 0 -355z"/>
<path d="M220 375 l0 -135 620 0 620 0 0 135 0 135 -620 0 -620 0 0 -135z"/>
</g>
</svg>
