<?xml version="1.0" encoding="UTF-8"?>
<svg version="1.1" xmlns="http://www.w3.org/2000/svg" width="391" height="257">
<path d="M0 0 C0.99 0.33 1.98 0.66 3 1 C3.11014902 14.59238862 3.05377994 28.16475805 2.5625 41.75 C2.52326416 42.88477783 2.48402832 44.01955566 2.44360352 45.1887207 C2.40162842 46.25566162 2.35965332 47.32260254 2.31640625 48.421875 C2.26141968 49.82324707 2.26141968 49.82324707 2.20532227 51.25292969 C1.98411263 54.21256206 1.52871257 57.08092603 1 60 C0.34 60 -0.32 60 -1 60 C-1 60.66 -1 61.32 -1 62 C-1.99 62 -2.98 62 -4 62 C-4 63.32 -4 64.64 -4 66 C-7.13498292 67.85776765 -9.37471432 68.20140476 -13 68 C-13 68.66 -13 69.32 -13 70 C-16.63 70 -20.26 70 -24 70 C-24 70.99 -24 71.98 -24 73 C-23.01 73.33 -22.02 73.66 -21 74 C-19.39453125 75.77734375 -19.39453125 75.77734375 -17.8125 77.9375 C-17.28269531 78.64777344 -16.75289062 79.35804688 -16.20703125 80.08984375 C-15 82 -15 82 -15 84 C-14.34 84 -13.68 84 -13 84 C-11.59765625 85.828125 -11.59765625 85.828125 -10.0625 88.25 C-8.5411549 90.63123581 -7.04549961 92.94157556 -5.30859375 95.171875 C-4 97 -4 97 -4 99 C-3.34 99 -2.68 99 -2 99 C-0.64560332 101.70879335 -0.93498549 104.00933268 -1 107 C-0.34 107 0.32 107 1 107 C1 107.66 1 108.32 1 109 C0.01 109.495 0.01 109.495 -1 110 C-1 112.31 -1 114.62 -1 117 C1.31 117 3.62 117 6 117 C6 117.33 6 117.66 6 118 C0.64323369 118.12353289 -4.71270526 118.21430573 -10.07055664 118.2746582 C-11.89329467 118.29981397 -13.71593172 118.33394285 -15.53833008 118.37719727 C-18.15731693 118.43780546 -20.77497153 118.46619761 -23.39453125 118.48828125 C-24.21025101 118.51408768 -25.02597076 118.5398941 -25.8664093 118.56648254 C-28.17114258 118.56762695 -28.17114258 118.56762695 -32 118 C-34.48116541 115.14726914 -35 113.77467317 -35 110 C-35.66 110 -36.32 110 -37 110 C-37 109.34 -37 108.68 -37 108 C-37.66 108 -38.32 108 -39 108 C-39 106.68 -39 105.36 -39 104 C-40.485 103.505 -40.485 103.505 -42 103 C-41.67 100.03 -41.34 97.06 -41 94 C-42.485 93.505 -42.485 93.505 -44 93 C-44 92.01 -44 91.02 -44 90 C-44.66 90 -45.32 90 -46 90 C-45.34 87.69 -44.68 85.38 -44 83 C-45.485 82.505 -45.485 82.505 -47 82 C-47 81.01 -47 80.02 -47 79 C-47.99 79 -48.98 79 -50 79 C-50.33 78.01 -50.66 77.02 -51 76 C-51.66 76.66 -52.32 77.32 -53 78 C-56.125 77.625 -56.125 77.625 -59 77 C-59.33 75.68 -59.66 74.36 -60 73 C-60.66 73 -61.32 73 -62 73 C-62 72.34 -62 71.68 -62 71 C-93.68 70.505 -93.68 70.505 -126 70 C-126 85.84 -126 101.68 -126 118 C-136.56 118 -147.12 118 -158 118 C-158 92.92 -158 67.84 -158 42 C-115.43 41.67 -72.86 41.34 -29 41 C-29 38.04740733 -29.03785702 35.10720246 -29.10546875 32.15625 C-29.13331235 30.27084065 -29.16063847 28.3854236 -29.1875 26.5 C-29.21263672 25.54996094 -29.23777344 24.59992188 -29.26367188 23.62109375 C-29.27817383 22.24630859 -29.27817383 22.24630859 -29.29296875 20.84375 C-29.31653442 19.59368164 -29.31653442 19.59368164 -29.34057617 18.31835938 C-28.92606901 15.49673928 -27.85326625 14.12290443 -26 12 C-26.99 11.505 -26.99 11.505 -28 11 C-24.11668968 9.66230441 -20.33234777 10.0690173 -16.3125 10.375 C-15.62349609 10.41882813 -14.93449219 10.46265625 -14.22460938 10.5078125 C-9.13162202 10.86837798 -9.13162202 10.86837798 -8 12 C-7.89958573 14.29380293 -7.8691839 16.59071985 -7.8671875 18.88671875 C-7.86623077 19.5813472 -7.86527405 20.27597565 -7.86428833 20.99165344 C-7.86360623 22.46701141 -7.8654626 23.94237236 -7.86962891 25.41772461 C-7.87493662 27.66071472 -7.86970601 29.90350087 -7.86328125 32.14648438 C-7.86394282 33.58072961 -7.8652256 35.01497471 -7.8671875 36.44921875 C-7.86831543 37.75205811 -7.86944336 39.05489746 -7.87060547 40.3972168 C-7.98904695 43.69502994 -8.37084893 46.76521382 -9 50 C-8.01 50 -7.02 50 -6 50 C-6 48.35 -6 46.7 -6 45 C-5.34 45 -4.68 45 -4 45 C-4 44.01 -4 43.02 -4 42 C-3.34 42 -2.68 42 -2 42 C-2.01047363 40.94087402 -2.02094727 39.88174805 -2.03173828 38.79052734 C-2.06806788 34.8432964 -2.09094748 30.89608011 -2.10986328 26.94873047 C-2.1198914 25.24362702 -2.13351726 23.53854064 -2.15087891 21.83349609 C-2.17526803 19.37593358 -2.18651512 16.91859939 -2.1953125 14.4609375 C-2.20563507 13.70444916 -2.21595764 12.94796082 -2.22659302 12.16854858 C-2.22752561 7.72177057 -1.65121642 4.13089783 0 0 Z " fill="#F22A2E" transform="translate(179,135)"/>
<path d="M0 0 C3.375 -0.125 3.375 -0.125 7 0 C9.67354787 2.67354787 9.23185359 4.67409745 9.23773193 8.30780029 C9.22897034 9.1935675 9.22020874 10.07933472 9.21118164 10.99194336 C9.2098674 11.92375931 9.20855316 12.85557526 9.2071991 13.81562805 C9.20068866 16.9071351 9.18024614 19.99839769 9.16015625 23.08984375 C9.15388868 25.23213941 9.14864765 27.37443829 9.14439392 29.51673889 C9.13106611 35.16601838 9.10662299 40.81519057 9.07904053 46.4644165 C9.03598879 55.50416878 9.00623453 64.5439499 8.9829998 73.58377266 C8.97275306 76.74745271 8.95570306 79.91104574 8.93800354 83.07469177 C8.93117656 85.00934775 8.9245678 86.94400452 8.91821289 88.87866211 C8.90810684 90.20427658 8.90810684 90.20427658 8.89779663 91.55667114 C8.89142592 94.95708318 8.91694929 97.75084788 10 101 C14.294863 103.66577703 18.48006908 104.12486636 23.45428467 104.15821838 C24.56203751 104.1680072 25.66979034 104.17779602 26.81111145 104.18788147 C28.02167709 104.19363693 29.23224274 104.1993924 30.47949219 104.20532227 C32.39694496 104.22017166 32.39694496 104.22017166 34.35313416 104.23532104 C37.85483181 104.26232966 41.35654289 104.28336107 44.85828686 104.30332303 C48.5191765 104.32520756 52.18002495 104.35258417 55.84088135 104.37937927 C62.77163039 104.42927281 69.70240233 104.47422401 76.63319612 104.51740164 C84.52433881 104.56680256 92.41544017 104.62171009 100.30654287 104.67708123 C116.53765714 104.79085002 132.76880931 104.89770015 149 105 C149.99783546 114.40816292 150 123.46428741 150 133 C130.86 133 111.72 133 92 133 C92 132.01 92 131.02 92 130 C96.62 130 101.24 130 106 130 C102.80717629 129.20179407 100.6872877 128.87596293 97.49481201 128.87974548 C96.59741302 128.87837082 95.70001404 128.87699615 94.77542114 128.87557983 C93.31022537 128.88097275 93.31022537 128.88097275 91.81542969 128.88647461 C90.26373581 128.88625557 90.26373581 128.88625557 88.68069458 128.8860321 C85.26106673 128.88672883 81.84149334 128.89451006 78.421875 128.90234375 C76.05104604 128.90420878 73.68021669 128.90563228 71.30938721 128.90663147 C65.06883684 128.91044994 58.82830973 128.92027455 52.58776855 128.93133545 C46.2199739 128.94156394 39.8521755 128.94613218 33.484375 128.95117188 C20.98957311 128.96189738 8.49478849 128.97896581 -4 129 C-4.33 129.66 -4.66 130.32 -5 131 C-7.31 131 -9.62 131 -12 131 C-12 130.34 -12 129.68 -12 129 C-12.66 129 -13.32 129 -14 129 C-14.268125 128.38125 -14.53625 127.7625 -14.8125 127.125 C-15.95556848 124.7004767 -15.95556848 124.7004767 -19 123 C-19 122.34 -19 121.68 -19 121 C-19.66 121 -20.32 121 -21 121 C-21 120.01 -21 119.02 -21 118 C-21.66 118 -22.32 118 -23 118 C-22.505 80.38 -22.505 80.38 -22 42 C-16.39 42 -10.78 42 -5 42 C-5 52.56 -5 63.12 -5 74 C-9.95 74 -14.9 74 -20 74 C-19.67 84.23 -19.34 94.46 -19 105 C-13.06 105.33 -7.12 105.66 -1 106 C-0.505 104.515 -0.505 104.515 0 103 C1.32 103 2.64 103 4 103 C4 103.99 4 104.98 4 106 C5.98 106.33 7.96 106.66 10 107 C10 105.68 10 104.36 10 103 C9.0409375 102.814375 9.0409375 102.814375 8.0625 102.625 C7.381875 102.41875 6.70125 102.2125 6 102 C5.505 101.01 5.505 101.01 5 100 C3.515 99.505 3.515 99.505 2 99 C2 69.63 2 40.26 2 10 C1.01 10 0.02 10 -1 10 C-1.33 8.02 -1.66 6.04 -2 4 C-3.32 3.67 -4.64 3.34 -6 3 C-5 2 -5 2 -2.4375 1.9375 C-1.2309375 1.9684375 -1.2309375 1.9684375 0 2 C0 1.34 0 0.68 0 0 Z " fill="#F3292D" transform="translate(239,120)"/>
<path d="M0 0 C1.22355698 0.0199855 2.44711395 0.03997101 3.70774841 0.06056213 C4.71746201 0.07497345 4.71746201 0.07497345 5.74757385 0.0896759 C7.98236706 0.12277348 10.21697126 0.16306434 12.4516449 0.2033844 C13.99720586 0.22767503 15.5427739 0.25151911 17.08834839 0.27493286 C21.1638747 0.33787909 25.23927631 0.40691563 29.31468201 0.47718811 C33.47030438 0.54777665 37.62601545 0.61265026 41.78172302 0.67799377 C49.9413264 0.80714185 58.10080694 0.9427191 66.26023865 1.08229065 C66.75523865 2.56729065 66.75523865 2.56729065 67.26023865 4.08229065 C87.55523865 4.57729065 87.55523865 4.57729065 108.26023865 5.08229065 C108.26023865 4.42229065 108.26023865 3.76229065 108.26023865 3.08229065 C110.24023865 3.08229065 112.22023865 3.08229065 114.26023865 3.08229065 C114.26023865 4.40229065 114.26023865 5.72229065 114.26023865 7.08229065 C115.25023865 7.08229065 116.24023865 7.08229065 117.26023865 7.08229065 C117.26023865 6.42229065 117.26023865 5.76229065 117.26023865 5.08229065 C118.91023865 4.75229065 120.56023865 4.42229065 122.26023865 4.08229065 C122.26023865 5.07229065 122.26023865 6.06229065 122.26023865 7.08229065 C119.61284948 8.54291915 118.3657553 9.08229065 115.26023865 9.08229065 C114.93023865 9.74229065 114.60023865 10.40229065 114.26023865 11.08229065 C114.26023865 10.42229065 114.26023865 9.76229065 114.26023865 9.08229065 C108.98023865 9.08229065 103.70023865 9.08229065 98.26023865 9.08229065 C98.26023865 15.35229065 98.26023865 21.62229065 98.26023865 28.08229065 C61.30023865 28.08229065 24.34023865 28.08229065 -13.73976135 28.08229065 C-13.40976135 23.46229065 -13.07976135 18.84229065 -12.73976135 14.08229065 C-11.41976135 13.42229065 -10.09976135 12.76229065 -8.73976135 12.08229065 C-9.39976135 11.42229065 -10.05976135 10.76229065 -10.73976135 10.08229065 C-9.74976135 9.42229065 -8.75976135 8.76229065 -7.73976135 8.08229065 C-9.38976135 7.75229065 -11.03976135 7.42229065 -12.73976135 7.08229065 C-12.73976135 5.76229065 -12.73976135 4.44229065 -12.73976135 3.08229065 C-6.98976135 2.95729065 -6.98976135 2.95729065 -4.73976135 4.08229065 C-4.73976135 4.74229065 -4.73976135 5.40229065 -4.73976135 6.08229065 C-0.77976135 6.41229065 3.18023865 6.74229065 7.26023865 7.08229065 C6.60023865 6.09229065 5.94023865 5.10229065 5.26023865 4.08229065 C4.27023865 4.74229065 3.28023865 5.40229065 2.26023865 6.08229065 C-0.36476135 5.83229065 -0.36476135 5.83229065 -2.73976135 5.08229065 C-3.06976135 4.42229065 -3.39976135 3.76229065 -3.73976135 3.08229065 C-2.74976135 3.08229065 -1.75976135 3.08229065 -0.73976135 3.08229065 C-1.72976135 2.42229065 -2.71976135 1.76229065 -3.73976135 1.08229065 C-2.73976135 0.08229065 -2.73976135 0.08229065 0 0 Z " fill="#F22A2E" transform="translate(40.73976135253906,116.91770935058594)"/>
<path d="M0 0 C10.89 0 21.78 0 33 0 C33 1.65 33 3.3 33 5 C30.03 4.34 27.06 3.68 24 3 C24 3.66 24 4.32 24 5 C22.35 5.33 20.7 5.66 19 6 C19.99 6.33 20.98 6.66 22 7 C22.33 8.98 22.66 10.96 23 13 C23.99 13 24.98 13 26 13 C26 42.37 26 71.74 26 102 C27.32 102.33 28.64 102.66 30 103 C30.495 103.99 30.495 103.99 31 105 C31.99 105.33 32.98 105.66 34 106 C34 107.32 34 108.64 34 110 C31.03 109.505 31.03 109.505 28 109 C28 108.01 28 107.02 28 106 C26.68 106 25.36 106 24 106 C23.67 107.32 23.34 108.64 23 110 C20.02046641 109.85982174 17.04150696 109.71313658 14.0625 109.5625 C13.21236328 109.52318359 12.36222656 109.48386719 11.48632812 109.44335938 C10.67744141 109.40146484 9.86855469 109.35957031 9.03515625 109.31640625 C8.2862915 109.27974854 7.53742676 109.24309082 6.76586914 109.20532227 C5 109 5 109 4 108 C3.91209025 105.70848583 3.89305962 103.41427476 3.90234375 101.12109375 C3.90446617 100.09110008 3.90446617 100.09110008 3.90663147 99.04029846 C3.91224521 96.83932199 3.92479993 94.63844591 3.9375 92.4375 C3.94251324 90.94856917 3.94707645 89.45963676 3.95117188 87.97070312 C3.96136979 84.31373195 3.98094221 80.65697883 4 77 C8.95 77 13.9 77 19 77 C19 66.44 19 55.88 19 45 C13.39 45 7.78 45 2 45 C2 66.12 2 87.24 2 109 C1.67 109 1.34 109 1 109 C0.505 55.045 0.505 55.045 0 0 Z " fill="#F22A2E" transform="translate(215,117)"/>
<path d="M0 0 C1.98 0.33 3.96 0.66 6 1 C6.495 2.485 6.495 2.485 7 4 C7.66 3.01 8.32 2.02 9 1 C11.49710982 1.34442894 12.82154665 1.84703999 14.75 3.5 C16.61276693 7.22553386 16.55491756 10.90658212 16 15 C14.48511577 18.75744212 14.48511577 18.75744212 12 20 C11.67 30.23 11.34 40.46 11 51 C12.65 51 14.3 51 16 51 C16.495 53.97 16.495 53.97 17 57 C22.445 57.495 22.445 57.495 28 58 C28.495 65.425 28.495 65.425 29 73 C1.61 73 -25.78 73 -54 73 C-54 68.05 -54 63.1 -54 58 C-36.51 58 -19.02 58 -1 58 C-1 41.17 -1 24.34 -1 7 C-2.32 6.34 -3.64 5.68 -5 5 C-5 4.34 -5 3.68 -5 3 C-21.17 3 -37.34 3 -54 3 C-54 2.67 -54 2.34 -54 2 C-36.51 2 -19.02 2 -1 2 C-0.505 3.485 -0.505 3.485 0 5 C0 3.35 0 1.7 0 0 Z " fill="#F02B2F" transform="translate(58,15)"/>
<path d="M0 0 C2.7225 -0.04125 5.445 -0.0825 8.25 -0.125 C9.10110352 -0.14320801 9.95220703 -0.16141602 10.82910156 -0.18017578 C17.84751675 -0.23170844 17.84751675 -0.23170844 21 2 C21.66 2.66 22.32 3.32 23 4 C21.02 4 19.04 4 17 4 C20.47147842 4.74957157 20.47147842 4.74957157 24 5 C24.33 4.34 24.66 3.68 25 3 C25.66 3 26.32 3 27 3 C27 4.32 27 5.64 27 7 C25.37509046 7.02698189 23.75005367 7.04638757 22.125 7.0625 C20.76761719 7.07990234 20.76761719 7.07990234 19.3828125 7.09765625 C17 7 17 7 15 6 C15 5.34 15 4.68 15 4 C12.36 3.67 9.72 3.34 7 3 C7 4.32 7 5.64 7 7 C8.65 7 10.3 7 12 7 C12.33 7.66 12.66 8.32 13 9 C12.01 9.33 11.02 9.66 10 10 C10.99 11.485 10.99 11.485 12 13 C10.35 13.33 8.7 13.66 7 14 C7 18.29 7 22.58 7 27 C43.63 27.33 80.26 27.66 118 28 C118 21.73 118 15.46 118 9 C123.28 9 128.56 9 134 9 C134 9.66 134 10.32 134 11 C137.3 11 140.6 11 144 11 C144 9.68 144 8.36 144 7 C147.70727898 6.71676137 151.30132484 6.56033579 155 7 C156.875 9.1875 156.875 9.1875 158 12 C158.83595703 12.63059326 159.67191406 13.26118652 160.53320312 13.91088867 C164.34235045 18.68099369 163.6781663 23.30603951 163.59375 29.23828125 C163.59379028 30.43301559 163.59383057 31.62774994 163.59387207 32.85868835 C163.58851455 35.38460552 163.57092227 37.91052213 163.54199219 40.4362793 C163.50026411 44.28812075 163.50091496 48.13820573 163.5078125 51.99023438 C163.49731514 54.44792874 163.48437412 56.90561413 163.46875 59.36328125 C163.46854858 60.50936356 163.46834717 61.65544586 163.46813965 62.83625793 C163.35582218 70.49072911 162.75872676 76.62822285 157.75 82.75 C152.20977454 87.28291174 147.03346116 90.02942311 139.875 90.5625 C138.77929688 90.64628906 137.68359375 90.73007813 136.5546875 90.81640625 C135.71164063 90.87699219 134.86859375 90.93757813 134 91 C134 90.01 134 89.02 134 88 C137.63 88 141.26 88 145 88 C145 87.34 145 86.68 145 86 C148.4352048 83.70986347 149.985331 83.82157027 154 84 C154 82.68 154 81.36 154 80 C154.99 80 155.98 80 157 80 C157 79.34 157 78.68 157 78 C157.66 78 158.32 78 159 78 C159.66 58.53 160.32 39.06 161 19 C160.34 19 159.68 19 159 19 C156.83309511 23.39843676 156.6588851 27.55335056 156.5859375 32.36328125 C156.56657135 33.15526413 156.5472052 33.94724701 156.5272522 34.76322937 C156.46772768 37.27954519 156.42118042 39.79590744 156.375 42.3125 C156.33679519 44.0241079 156.29774201 45.73569709 156.2578125 47.44726562 C156.1620487 51.63135749 156.0779182 55.81553931 156 60 C155.34 60 154.68 60 154 60 C154 60.99 154 61.98 154 63 C153.34 63 152.68 63 152 63 C152 64.65 152 66.3 152 68 C151.01 68 150.02 68 149 68 C149 55.46 149 42.92 149 30 C143.39 29.67 137.78 29.34 132 29 C131.67 30.32 131.34 31.64 131 33 C130.01 33.495 130.01 33.495 129 34 C129 33.34 129 32.68 129 32 C128.34 32 127.68 32 127 32 C127 31.34 127 30.68 127 30 C85.09 30 43.18 30 0 30 C0 20.1 0 10.2 0 0 Z " fill="#E92D30" transform="translate(21,117)"/>
<path d="M0 0 C6.27 0 12.54 0 19 0 C19.15346225 7.47580397 19.30227245 14.95166598 19.4429636 22.42772198 C19.50848113 25.89938958 19.5760124 29.37099334 19.64819336 32.8425293 C19.73114401 36.83632433 19.80525002 40.83024141 19.87890625 44.82421875 C19.91945885 46.68852791 19.91945885 46.68852791 19.96083069 48.59049988 C19.98092697 49.75132584 20.00102325 50.91215179 20.02172852 52.1081543 C20.04171402 53.12741501 20.06169952 54.14667572 20.08229065 55.19682312 C20.00246743 57.91594855 19.61845664 60.35601694 19 63 C18.195625 62.979375 17.39125 62.95875 16.5625 62.9375 C14.06645115 62.70366379 14.06645115 62.70366379 13 64 C13.99 64.33 14.98 64.66 16 65 C16 66.65 16 68.3 16 70 C18.97 70.33 21.94 70.66 25 71 C25 71.66 25 72.32 25 73 C24.01 73 23.02 73 22 73 C22 73.66 22 74.32 22 75 C22.66 75 23.32 75 24 75 C24 75.66 24 76.32 24 77 C24.66 77 25.32 77 26 77 C26 76.34 26 75.68 26 75 C27.32 75.33 28.64 75.66 30 76 C30.33 78.31 30.66 80.62 31 83 C28.525 83.99 28.525 83.99 26 85 C26 84.34 26 83.68 26 83 C25.34 83 24.68 83 24 83 C24 82.34 24 81.68 24 81 C23.34 81 22.68 81 22 81 C22 80.34 22 79.68 22 79 C21.34 79 20.68 79 20 79 C20 78.34 20 77.68 20 77 C19.34 77 18.68 77 18 77 C18 76.34 18 75.68 18 75 C17.34 75 16.68 75 16 75 C16 74.34 16 73.68 16 73 C15.34 73 14.68 73 14 73 C11.875 71.125 11.875 71.125 10 69 C10 68.34 10 67.68 10 67 C9.34 67 8.68 67 8 67 C8 66.34 8 65.68 8 65 C7.34 65 6.68 65 6 65 C6 64.34 6 63.68 6 63 C5.34 63 4.68 63 4 63 C4 62.34 4 61.68 4 61 C3.34 61 2.68 61 2 61 C2 60.34 2 59.68 2 59 C1.34 59 0.68 59 0 59 C0 39.53 0 20.06 0 0 Z " fill="#E12B2F" transform="translate(197,1)"/>
<path d="M0 0 C0.84755859 0.00966797 1.69511719 0.01933594 2.56835938 0.02929688 C3.44943359 0.05443359 4.33050781 0.07957031 5.23828125 0.10546875 C6.13095703 0.11900391 7.02363281 0.13253906 7.94335938 0.14648438 C10.14644291 0.18182796 12.34830707 0.23116382 14.55078125 0.29296875 C13.08169513 3.68259009 11.19294599 5.90382766 8.59179688 8.51074219 C7.77755249 9.33129089 6.96330811 10.1518396 6.12438965 10.99725342 C5.24416138 11.87343323 4.36393311 12.74961304 3.45703125 13.65234375 C2.10333435 15.00891083 2.10333435 15.00891083 0.72229004 16.3928833 C-1.18516979 18.30170366 -3.09452287 20.20837424 -5.00732422 22.11181641 C-7.46228184 24.55534756 -9.90810868 27.0077911 -12.35137177 29.46300888 C-14.68122469 31.80180788 -17.01866406 34.13299368 -19.35546875 36.46484375 C-20.23569702 37.34912048 -21.11592529 38.23339722 -22.02282715 39.14447021 C-22.83707153 39.95241028 -23.65131592 40.76035034 -24.49023438 41.59277344 C-25.20812134 42.30906921 -25.9260083 43.02536499 -26.66564941 43.7633667 C-28.44921875 45.29296875 -28.44921875 45.29296875 -30.44921875 45.29296875 C-30.44921875 45.95296875 -30.44921875 46.61296875 -30.44921875 47.29296875 C-31.10921875 47.29296875 -31.76921875 47.29296875 -32.44921875 47.29296875 C-32.44921875 47.95296875 -32.44921875 48.61296875 -32.44921875 49.29296875 C-33.10921875 49.29296875 -33.76921875 49.29296875 -34.44921875 49.29296875 C-34.44921875 49.95296875 -34.44921875 50.61296875 -34.44921875 51.29296875 C-35.10921875 51.29296875 -35.76921875 51.29296875 -36.44921875 51.29296875 C-36.44921875 51.95296875 -36.44921875 52.61296875 -36.44921875 53.29296875 C-37.10921875 53.29296875 -37.76921875 53.29296875 -38.44921875 53.29296875 C-38.44921875 53.95296875 -38.44921875 54.61296875 -38.44921875 55.29296875 C-39.10921875 55.29296875 -39.76921875 55.29296875 -40.44921875 55.29296875 C-40.44921875 55.95296875 -40.44921875 56.61296875 -40.44921875 57.29296875 C-42.40848938 59.00733055 -44.40802087 60.67702043 -46.44921875 62.29296875 C-45.47055537 63.43923197 -44.49127288 64.58496663 -43.51171875 65.73046875 C-42.96644531 66.36855469 -42.42117187 67.00664063 -41.859375 67.6640625 C-40.06140537 69.9893973 -40.06140537 69.9893973 -37.27891541 70.45118713 C-35.84329002 70.47450356 -35.84329002 70.47450356 -34.37866211 70.49829102 C-32.7570945 70.52820885 -32.7570945 70.52820885 -31.10276794 70.55873108 C-29.92674515 70.57544357 -28.75072235 70.59215607 -27.5390625 70.609375 C-25.74330528 70.64054665 -25.74330528 70.64054665 -23.91127014 70.67234802 C-20.06981388 70.73797154 -16.22828674 70.79678778 -12.38671875 70.85546875 C-9.78970608 70.8986418 -7.19270069 70.94225568 -4.59570312 70.98632812 C1.78638485 71.09366595 8.16854443 71.19489693 14.55078125 71.29296875 C14.55078125 76.90296875 14.55078125 82.51296875 14.55078125 88.29296875 C12.57078125 87.79796875 12.57078125 87.79796875 10.55078125 87.29296875 C11.21078125 87.29296875 11.87078125 87.29296875 12.55078125 87.29296875 C12.55078125 82.34296875 12.55078125 77.39296875 12.55078125 72.29296875 C-5.59921875 72.29296875 -23.74921875 72.29296875 -42.44921875 72.29296875 C-42.44921875 71.63296875 -42.44921875 70.97296875 -42.44921875 70.29296875 C-43.10921875 70.29296875 -43.76921875 70.29296875 -44.44921875 70.29296875 C-44.44921875 69.63296875 -44.44921875 68.97296875 -44.44921875 68.29296875 C-46.09921875 68.29296875 -47.74921875 68.29296875 -49.44921875 68.29296875 C-48.45921875 67.79796875 -48.45921875 67.79796875 -47.44921875 67.29296875 C-47.44921875 66.63296875 -47.44921875 65.97296875 -47.44921875 65.29296875 C-48.10921875 65.29296875 -48.76921875 65.29296875 -49.44921875 65.29296875 C-49.44921875 62.98296875 -49.44921875 60.67296875 -49.44921875 58.29296875 C-47.79921875 58.29296875 -46.14921875 58.29296875 -44.44921875 58.29296875 C-44.44921875 55.98296875 -44.44921875 53.67296875 -44.44921875 51.29296875 C-45.10921875 50.96296875 -45.76921875 50.63296875 -46.44921875 50.29296875 C-46.11921875 49.30296875 -45.78921875 48.31296875 -45.44921875 47.29296875 C-46.10921875 46.96296875 -46.76921875 46.63296875 -47.44921875 46.29296875 C-47.44921875 46.95296875 -47.44921875 47.61296875 -47.44921875 48.29296875 C-48.94921875 49.91796875 -48.94921875 49.91796875 -50.44921875 51.29296875 C-49.45921875 51.62296875 -48.46921875 51.95296875 -47.44921875 52.29296875 C-48.43921875 52.29296875 -49.42921875 52.29296875 -50.44921875 52.29296875 C-50.77921875 53.28296875 -51.10921875 54.27296875 -51.44921875 55.29296875 C-53.09921875 54.96296875 -54.74921875 54.63296875 -56.44921875 54.29296875 C-55.78921875 52.97296875 -55.12921875 51.65296875 -54.44921875 50.29296875 C-53.78921875 50.29296875 -53.12921875 50.29296875 -52.44921875 50.29296875 C-52.44921875 49.63296875 -52.44921875 48.97296875 -52.44921875 48.29296875 C-51.78921875 48.29296875 -51.12921875 48.29296875 -50.44921875 48.29296875 C-50.19329956 47.71238708 -49.93738037 47.13180542 -49.67370605 46.53363037 C-48.32798872 44.07113267 -46.83751061 42.42734254 -44.85742188 40.44238281 C-44.1232605 39.70191711 -43.38909912 38.96145142 -42.63269043 38.19854736 C-41.83995728 37.40986267 -41.04722412 36.62117798 -40.23046875 35.80859375 C-39.41678833 34.99299988 -38.60310791 34.17740601 -37.76477051 33.33709717 C-36.04567229 31.61663897 -34.32404981 29.89869985 -32.60009766 28.18310547 C-29.95242241 25.54615943 -27.31560344 22.89869495 -24.6796875 20.25 C-23.00975575 18.58138933 -21.33920397 16.91339889 -19.66796875 15.24609375 C-18.47886902 14.05092133 -18.47886902 14.05092133 -17.26574707 12.831604 C-16.164505 11.73981842 -16.164505 11.73981842 -15.04101562 10.62597656 C-14.39418823 9.98074036 -13.74736084 9.33550415 -13.08093262 8.67071533 C-11.44921875 7.29296875 -11.44921875 7.29296875 -9.44921875 7.29296875 C-9.18109375 6.69484375 -8.91296875 6.09671875 -8.63671875 5.48046875 C-6.41062757 1.37977446 -4.73445317 -0.09532456 0 0 Z " fill="#DC2E33" transform="translate(273.44921875,0.70703125)"/>
<path d="M0 0 C1.32 0.66 2.64 1.32 4 2 C3.34 2 2.68 2 2 2 C2.350625 3.093125 2.70125 4.18625 3.0625 5.3125 C4 9 4 9 3 12 C2.01 12 1.02 12 0 12 C-0.66 14.31 -1.32 16.62 -2 19 C-1.34 19 -0.68 19 0 19 C0 19.66 0 20.32 0 21 C0.99 21.33 1.98 21.66 3 22 C3 22.66 3 23.32 3 24 C3.66 24 4.32 24 5 24 C5 24.66 5 25.32 5 26 C23.15 26 41.3 26 60 26 C60 30.95 60 35.9 60 41 C40.86 41 21.72 41 2 41 C2 40.34 2 39.68 2 39 C1.34 39 0.68 39 0 39 C0.33 38.01 0.66 37.02 1 36 C0.72428861 33.99124558 0.39764263 31.98821313 0 30 C-0.99 29.67 -1.98 29.34 -3 29 C-3 29.66 -3 30.32 -3 31 C-3.66 31 -4.32 31 -5 31 C-5 30.34 -5 29.68 -5 29 C-5.66 29 -6.32 29 -7 29 C-7 28.34 -7 27.68 -7 27 C-6.01 27 -5.02 27 -4 27 C-4 26.34 -4 25.68 -4 25 C-6.97 24.67 -9.94 24.34 -13 24 C-13 22.35 -13 20.7 -13 19 C-14.65 19 -16.3 19 -18 19 C-17.34 18.67 -16.68 18.34 -16 18 C-15.67 17.34 -15.34 16.68 -15 16 C-13.35 16.33 -11.7 16.66 -10 17 C-9.67 14.03 -9.34 11.06 -9 8 C-8.01 8 -7.02 8 -6 8 C-5.67 7.34 -5.34 6.68 -5 6 C-4.67 6.66 -4.34 7.32 -4 8 C-3.34 6.02 -2.68 4.04 -2 2 C-1.34 2 -0.68 2 0 2 C0 1.34 0 0.68 0 0 Z " fill="#F22A2F" transform="translate(226,47)"/>
<path d="M0 0 C1.06087326 0.00007553 2.12174652 0.00015106 3.21476746 0.00022888 C4.3585939 0.00539017 5.50242035 0.01055145 6.6809082 0.01586914 C8.43912651 0.01799156 8.43912651 0.01799156 10.23286438 0.02015686 C13.98249852 0.02576151 17.73207331 0.03831483 21.48168945 0.05102539 C24.02140213 0.05603979 26.56111575 0.0606028 29.10083008 0.06469727 C35.33197018 0.07573245 41.56307558 0.09247514 47.79418945 0.11352539 C47.79418945 0.77352539 47.79418945 1.43352539 47.79418945 2.11352539 C48.45418945 2.11352539 49.11418945 2.11352539 49.79418945 2.11352539 C49.79418945 1.45352539 49.79418945 0.79352539 49.79418945 0.11352539 C52.26918945 0.60852539 52.26918945 0.60852539 54.79418945 1.11352539 C54.46418945 2.10352539 54.13418945 3.09352539 53.79418945 4.11352539 C54.75325195 3.83508789 54.75325195 3.83508789 55.73168945 3.55102539 C56.41231445 3.40665039 57.09293945 3.26227539 57.79418945 3.11352539 C60.43959543 5.75893136 58.97981098 13.48756724 58.98168945 17.05102539 C58.99393555 18.26983398 59.00618164 19.48864258 59.01879883 20.74438477 C59.02073242 21.90647461 59.02266602 23.06856445 59.0246582 24.26586914 C59.02876709 25.33828857 59.03287598 26.41070801 59.03710938 27.515625 C58.79418945 30.11352539 58.79418945 30.11352539 56.79418945 32.11352539 C56.13418945 33.10352539 55.47418945 34.09352539 54.79418945 35.11352539 C53.14418945 34.45352539 51.49418945 33.79352539 49.79418945 33.11352539 C49.79418945 34.76352539 49.79418945 36.41352539 49.79418945 38.11352539 C47.15418945 38.11352539 44.51418945 38.11352539 41.79418945 38.11352539 C41.46418945 37.45352539 41.13418945 36.79352539 40.79418945 36.11352539 C42.44418945 36.11352539 44.09418945 36.11352539 45.79418945 36.11352539 C45.79418945 35.45352539 45.79418945 34.79352539 45.79418945 34.11352539 C44.80418945 33.78352539 43.81418945 33.45352539 42.79418945 33.11352539 C43.78418945 32.78352539 44.77418945 32.45352539 45.79418945 32.11352539 C46.12418945 27.16352539 46.45418945 22.21352539 46.79418945 17.11352539 C45.80418945 16.45352539 44.81418945 15.79352539 43.79418945 15.11352539 C43.10668945 12.98852539 43.10668945 12.98852539 42.79418945 11.11352539 C41.98030762 11.43804687 41.16642578 11.76256836 40.32788086 12.09692383 C36.17344056 13.29210756 32.54834345 13.40184641 28.25512695 13.37915039 C27.05021103 13.38202057 27.05021103 13.38202057 25.82095337 13.38494873 C24.13169031 13.38630367 22.4424166 13.38265572 20.75317383 13.37426758 C18.17025419 13.36352982 15.58802556 13.37420056 13.00512695 13.38696289 C11.35929209 13.38564172 9.71345766 13.38308021 8.06762695 13.37915039 C7.29776459 13.38319885 6.52790222 13.38724731 5.73471069 13.39141846 C1.94329466 13.35827143 -0.99097557 13.24545744 -4.20581055 11.11352539 C-4.20581055 10.45352539 -4.20581055 9.79352539 -4.20581055 9.11352539 C-5.19581055 8.78352539 -6.18581055 8.45352539 -7.20581055 8.11352539 C-8.45581055 5.67602539 -8.45581055 5.67602539 -9.20581055 3.11352539 C-7.33841751 -0.62126067 -3.71755723 -0.0088303 0 0 Z " fill="#F32A2E" transform="translate(123.205810546875,39.886474609375)"/>
<path d="M0 0 C7.66785738 -0.22322451 15.33380637 -0.38614849 23.00415039 -0.49438477 C25.61060549 -0.53952169 28.21683425 -0.60084867 30.82250977 -0.67895508 C34.57885636 -0.78869749 38.33218136 -0.83929519 42.08984375 -0.87890625 C43.24645004 -0.92535782 44.40305634 -0.97180939 45.5947113 -1.01966858 C52.00954375 -1.02363116 55.51326858 -0.25417718 60.24438477 4.24243164 C63.23485772 7.49573593 64.25776828 9.69208444 65 14 C65.99 14.495 65.99 14.495 67 15 C66.01 15 65.02 15 64 15 C63.34 16.32 62.68 17.64 62 19 C61.505 17.02 61.505 17.02 61 15 C59.02 14.67 57.04 14.34 55 14 C55 15.65 55 17.3 55 19 C54.34 18.67 53.68 18.34 53 18 C53.33 17.34 53.66 16.68 54 16 C53.44403137 16.32531708 52.88806274 16.65063416 52.31524658 16.98580933 C49.66109562 18.14845661 47.84478109 18.24164031 44.95605469 18.22705078 C43.45495148 18.22682419 43.45495148 18.22682419 41.92352295 18.22659302 C40.85047913 18.21627045 39.7774353 18.20594788 38.671875 18.1953125 C37.56773254 18.1924826 36.46359009 18.18965271 35.32598877 18.18673706 C31.8005488 18.17554489 28.27536315 18.15044175 24.75 18.125 C22.35937867 18.11496897 19.96875336 18.10584333 17.578125 18.09765625 C11.71865205 18.07560865 5.85936914 18.04108511 0 18 C0 12.06 0 6.12 0 0 Z " fill="#E12A2E" transform="translate(3,1)"/>
<path d="M0 0 C1.25908676 0.00222061 2.51817352 0.00444122 3.81541443 0.00672913 C4.50806396 0.0065831 5.2007135 0.00643707 5.91435242 0.00628662 C8.21400537 0.00698577 10.51357828 0.01477823 12.81321716 0.02259827 C14.40362504 0.02446244 15.99403349 0.02588635 17.58444214 0.02688599 C21.77827021 0.03071123 25.97206386 0.04054156 30.1658783 0.05158997 C34.44220006 0.06180395 38.71852736 0.06638358 42.99485779 0.07142639 C51.39135799 0.08216383 59.78783017 0.09924032 68.18431091 0.12025452 C68.22678463 3.96943478 67.9973522 7.35993857 67.18431091 11.12025452 C67.18431091 12.11025452 67.18431091 13.10025452 67.18431091 14.12025452 C46.72431091 14.12025452 26.26431091 14.12025452 5.18431091 14.12025452 C5.84431091 13.46025452 6.50431091 12.80025452 7.18431091 12.12025452 C4.21431091 12.12025452 1.24431091 12.12025452 -1.81568909 12.12025452 C-2.81568909 8.12025452 -2.81568909 8.12025452 -2.81568909 6.12025452 C-3.00131409 5.27462952 -3.18693909 4.42900452 -3.37818909 3.55775452 C-3.52256409 2.75337952 -3.66693909 1.94900452 -3.81568909 1.12025452 C-2.81568909 0.12025452 -2.81568909 0.12025452 0 0 Z " fill="#F32A2E" transform="translate(321.81568908691406,72.87974548339844)"/>
<path d="M0 0 C18.48 0 36.96 0 56 0 C56 4.62 56 9.24 56 14 C35.87 14 15.74 14 -5 14 C-5 14.66 -5 15.32 -5 16 C-4.34 16.33 -3.68 16.66 -3 17 C-3.66 17.66 -4.32 18.32 -5 19 C-5.46486718 22.12196336 -5.46486718 22.12196336 -5.625 25.625 C-5.69976562 26.81351563 -5.77453125 28.00203125 -5.8515625 29.2265625 C-5.90054688 30.14179687 -5.94953125 31.05703125 -6 32 C-6.33 32 -6.66 32 -7 32 C-7 27.05 -7 22.1 -7 17 C-8.65 17.33 -10.3 17.66 -12 18 C-11.690625 16.63875 -11.690625 16.63875 -11.375 15.25 C-10.9872755 11.88972103 -11.19588033 10.75924185 -13 8 C-11.4375 5.9375 -11.4375 5.9375 -9 4 C-5.375 4.3125 -5.375 4.3125 -2 5 C-1.34 4.67 -0.68 4.34 0 4 C0 2.68 0 1.36 0 0 Z " fill="#F02A2D" transform="translate(123,3)"/>
<path d="M0 0 C0.7425 0.2475 1.485 0.495 2.25 0.75 C1.92 2.73 1.59 4.71 1.25 6.75 C2.9 6.42 4.55 6.09 6.25 5.75 C5.92 11.03 5.59 16.31 5.25 21.75 C9.67844913 23.52137965 11.54265009 23.99741187 16.0625 23.98950195 C17.2071875 23.99323318 18.351875 23.99696442 19.53125 24.00080872 C21.37203125 23.99460762 21.37203125 23.99460762 23.25 23.98828125 C25.85417191 24.00369514 28.45833869 24.01999834 31.0625 24.03710938 C35.16411547 24.0558248 39.26553672 24.06394473 43.3671875 24.05541992 C47.32840472 24.04843707 51.28890556 24.08087281 55.25 24.11328125 C56.4771875 24.10307449 57.704375 24.09286774 58.96875 24.08235168 C68.43575851 24.19141918 68.43575851 24.19141918 71.51171875 27.10620117 C73.67994267 30.4039114 74.15784344 32.90575484 74.25 36.75 C74.28867188 37.8328125 74.32734375 38.915625 74.3671875 40.03125 C74.4943306 46.64269142 74.26877775 52.44131953 72.25 58.75 C71.59 58.75 70.93 58.75 70.25 58.75 C70.25 59.41 70.25 60.07 70.25 60.75 C69.59 60.75 68.93 60.75 68.25 60.75 C68.58 59.1 68.91 57.45 69.25 55.75 C69.58 55.75 69.91 55.75 70.25 55.75 C70.25 47.5 70.25 39.25 70.25 30.75 C68.93 30.75 67.61 30.75 66.25 30.75 C66.25 29.76 66.25 28.77 66.25 27.75 C64.93 27.42 63.61 27.09 62.25 26.75 C62.25 27.41 62.25 28.07 62.25 28.75 C61.59 28.75 60.93 28.75 60.25 28.75 C60.25 28.09 60.25 27.43 60.25 26.75 C41.77 27.08 23.29 27.41 4.25 27.75 C5.15677452 32.7256979 5.15677452 32.7256979 8.25 35.75 C8.25 36.41 8.25 37.07 8.25 37.75 C11.09313331 38.55974903 13.60702965 38.87241859 16.55957031 38.86352539 C17.40013977 38.86344986 18.24070923 38.86337433 19.10675049 38.86329651 C20.00480408 38.85813522 20.90285767 38.85297394 21.828125 38.84765625 C23.21798615 38.84553383 23.21798615 38.84553383 24.63592529 38.84336853 C27.59064992 38.83777824 30.54529833 38.8252275 33.5 38.8125 C35.50520724 38.80748375 37.51041567 38.80292106 39.515625 38.79882812 C44.42711263 38.78781199 49.3385434 38.770554 54.25 38.75 C54.745 37.76 54.745 37.76 55.25 36.75 C55.745 39.225 55.745 39.225 56.25 41.75 C48.63287744 41.82600577 41.01585253 41.8785813 33.3984375 41.91479492 C30.80660345 41.92989015 28.21479497 41.95036824 25.62304688 41.97631836 C21.89967541 42.01266827 18.1766414 42.0297192 14.453125 42.04296875 C13.29258606 42.05845261 12.13204712 42.07393646 10.93634033 42.08988953 C9.85552185 42.09011612 8.77470337 42.09034271 7.66113281 42.09057617 C6.71071106 42.09723801 5.76028931 42.10389984 4.78106689 42.11076355 C1.7956545 41.68524024 0.40572752 40.83037167 -1.75 38.75 C-1.75 38.09 -1.75 37.43 -1.75 36.75 C-2.41 36.75 -3.07 36.75 -3.75 36.75 C-3.75 36.09 -3.75 35.43 -3.75 34.75 C-4.41 34.75 -5.07 34.75 -5.75 34.75 C-5.75 34.09 -5.75 33.43 -5.75 32.75 C-6.36875 32.481875 -6.9875 32.21375 -7.625 31.9375 C-9.75 30.75 -9.75 30.75 -11.75 27.75 C-12.22499843 24.64112583 -12.16627436 21.51639509 -12.1875 18.375 C-12.22037109 17.52421875 -12.25324219 16.6734375 -12.28710938 15.796875 C-12.32568545 11.29399493 -12.27619885 9.39683956 -9.34765625 5.796875 C-8.49042969 5.12140625 -7.63320312 4.4459375 -6.75 3.75 C-6.09 2.96625 -5.43 2.1825 -4.75 1.375 C-2.75 -0.25 -2.75 -0.25 0 0 Z " fill="#E63033" transform="translate(110.75,13.25)"/>
<path d="M0 0 C19.8 0 39.6 0 60 0 C60.495 2.475 60.495 2.475 61 5 C61.66 5 62.32 5 63 5 C63 5.66 63 6.32 63 7 C64.32 7.33 65.64 7.66 67 8 C67 8.99 67 9.98 67 11 C66.34 11.33 65.68 11.66 65 12 C65 12.66 65 13.32 65 14 C43.55 14 22.1 14 0 14 C0 9.38 0 4.76 0 0 Z " fill="#F32A2E" transform="translate(100,73)"/>
<path d="M0 0 C4.62 0 9.24 0 14 0 C14 20.46 14 40.92 14 62 C13.67 62 13.34 62 13 62 C13 59.69 13 57.38 13 55 C12.34 55 11.68 55 11 55 C11 41.8 11 28.6 11 15 C10.34 15 9.68 15 9 15 C9 32.16 9 49.32 9 67 C8.01 67.495 8.01 67.495 7 68 C7.99 68.66 8.98 69.32 10 70 C10.1875 72.625 10.1875 72.625 10 75 C8.68 75 7.36 75 6 75 C6 74.34 6 73.68 6 73 C5.01 72.67 4.02 72.34 3 72 C-0.86960128 64.72376861 -0.38667856 57.2771298 -0.29296875 49.21875 C-0.28736409 47.79529266 -0.28309811 46.37182948 -0.28010559 44.94836426 C-0.2687251 41.22631473 -0.23931791 37.50462395 -0.20599365 33.78271484 C-0.17514493 29.97498424 -0.16156883 26.16719491 -0.14648438 22.359375 C-0.11444037 14.90606856 -0.06172955 7.45313053 0 0 Z " fill="#F22B2E" transform="translate(304,3)"/>
<path d="M0 0 C12.21 0 24.42 0 37 0 C37.029729 4.55796387 37.029729 4.55796387 37.06005859 9.20800781 C37.12691214 19.23842891 37.20455242 29.26874551 37.28752708 39.29904556 C37.33751085 45.38146933 37.38384082 51.46387556 37.421875 57.54638672 C37.45870134 63.41438416 37.50505428 69.28223555 37.55806351 75.15010834 C37.57662152 77.39081006 37.59172425 79.63154312 37.60334396 81.87229156 C37.62018214 85.00648513 37.64921173 88.14034316 37.68115234 91.27441406 C37.68331253 92.20445755 37.68547272 93.13450104 37.68769836 94.09272766 C37.69886185 94.94805588 37.71002533 95.80338409 37.7215271 96.68463135 C37.72705786 97.42575291 37.73258862 98.16687447 37.73828697 98.93045425 C38.04321271 101.3417128 38.72182835 102.93938891 40 105 C47.14885798 108.88080862 56.01957158 108.16431284 63.90209961 108.20532227 C65.08330383 108.21522186 66.26450806 108.22512146 67.48150635 108.23532104 C70.70205096 108.26139531 73.92259085 108.28330369 77.14317775 108.30332303 C80.51577128 108.32528457 83.88832123 108.35262321 87.26087952 108.37937927 C93.63903819 108.42916936 100.01722123 108.47415858 106.39542729 108.51740164 C113.66029273 108.56689144 120.92511442 108.62176578 128.18993747 108.67708123 C143.12658415 108.79069102 158.06327211 108.89757527 173 109 C173 109.33 173 109.66 173 110 C156.26685164 110.04672515 139.53372445 110.08199137 122.80052662 110.10362434 C115.03097668 110.11393598 107.26146728 110.12799417 99.49194336 110.15087891 C92.71985986 110.17081622 85.94780572 110.18371726 79.17569369 110.18817699 C75.59006693 110.19078379 72.00452417 110.19690857 68.41892433 110.21146011 C64.41571962 110.22757459 60.41266087 110.22797947 56.40942383 110.22705078 C55.22115494 110.23424133 54.03288605 110.24143188 52.80860901 110.24884033 C51.71630981 110.246091 50.62401062 110.24334167 49.49861145 110.24050903 C48.07858936 110.24327441 48.07858936 110.24327441 46.62987995 110.24609566 C42.4296442 109.85305119 39.6129913 108.44277849 36.21723938 105.98994446 C33.0497696 101.71861553 33.37128362 98.34406375 33.52416992 93.16088867 C33.53319336 92.17504791 33.5422168 91.18920715 33.55151367 90.17349243 C33.58723104 86.9208399 33.65867713 83.67000842 33.73046875 80.41796875 C33.76223747 78.16069988 33.79177401 75.90339858 33.81916809 73.64607239 C33.89721524 67.70917474 34.00558135 61.77320247 34.12023926 55.83691406 C34.2319156 49.7776109 34.31495265 43.71792301 34.40039062 37.65820312 C34.5722115 25.77153904 34.778705 13.88584608 35 2 C23.78 2 12.56 2 1 2 C1 40.61 1 79.22 1 119 C0.67 119 0.34 119 0 119 C0 79.73 0 40.46 0 0 Z " fill="#BD2E34" transform="translate(213,115)"/>
<path d="M0 0 C0 0.66 0 1.32 0 2 C0.66 2 1.32 2 2 2 C5.22265625 7.17578125 5.22265625 7.17578125 6 9 C5.67 9.99 5.34 10.98 5 12 C5 11.34 5 10.68 5 10 C4.38125 9.71125 3.7625 9.4225 3.125 9.125 C0.29942655 7.62910817 -1.58531963 5.82936074 -3 3 C-5.97 3 -8.94 3 -12 3 C-12 4.32 -12 5.64 -12 7 C-14.97 7 -17.94 7 -21 7 C-21 6.34 -21 5.68 -21 5 C-18.35261084 3.5393715 -17.10551666 3 -14 3 C-14 2.01 -14 1.02 -14 0 C-15.65 0.33 -17.3 0.66 -19 1 C-19 1.66 -19 2.32 -19 3 C-19.99 3 -20.98 3 -22 3 C-22 1.68 -22 0.36 -22 -1 C-23.98 -1 -25.96 -1 -28 -1 C-28 -0.34 -28 0.32 -28 1 C-41.53 1 -55.06 1 -69 1 C-69.495 -0.485 -69.495 -0.485 -70 -2 C-88.48 -2.33 -106.96 -2.66 -126 -3 C-126 -3.33 -126 -3.66 -126 -4 C-111.42245063 -4.33195979 -96.84460219 -4.64561082 -82.26619816 -4.93773937 C-75.49650351 -5.07381601 -68.72702987 -5.21577927 -61.95776367 -5.37182617 C-55.42225745 -5.52246756 -48.88653127 -5.65640619 -42.35046196 -5.78026772 C-39.85975939 -5.83017795 -37.36916151 -5.88563802 -34.87870979 -5.94679832 C-31.3841823 -6.03165832 -27.88979967 -6.09658479 -24.39477539 -6.15698242 C-22.85836143 -6.20121338 -22.85836143 -6.20121338 -21.29090881 -6.24633789 C-13.83660876 -6.34466076 -5.56707841 -5.56707841 0 0 Z " fill="#E92B31" transform="translate(177,121)"/>
<path d="M0 0 C0.66 0 1.32 0 2 0 C2 13.2 2 26.4 2 40 C2.66 40 3.32 40 4 40 C4.12117188 40.68707031 4.24234375 41.37414063 4.3671875 42.08203125 C4.53476562 42.98308594 4.70234375 43.88414063 4.875 44.8125 C5.03742188 45.70582031 5.19984375 46.59914062 5.3671875 47.51953125 C5.91188449 50.22727846 5.91188449 50.22727846 8 53 C11.03044541 53.47966252 11.03044541 53.47966252 14.65283203 53.43237305 C15.33587402 53.4425647 16.01891602 53.45275635 16.72265625 53.46325684 C18.98445725 53.49349516 21.24583556 53.5026688 23.5078125 53.51171875 C25.07438578 53.5285575 26.64094548 53.54670665 28.20748901 53.56611633 C32.33383949 53.61371022 36.46013495 53.64345853 40.58666992 53.66955566 C44.7961718 53.69931409 49.00548386 53.74586049 53.21484375 53.79101562 C61.4764853 53.87715558 69.73810663 53.94290177 78 54 C78 59.61 78 65.22 78 71 C55.23 71 32.46 71 9 71 C9 70.34 9 69.68 9 69 C8.071875 68.5359375 8.071875 68.5359375 7.125 68.0625 C5.75 67.375 4.375 66.6875 3 66 C3 65.34 3 64.68 3 64 C2.34 64 1.68 64 1 64 C1 63.34 1 62.68 1 62 C0.34 62 -0.32 62 -1 62 C-1 61.34 -1 60.68 -1 60 C-0.34 60 0.32 60 1 60 C1 58.35 1 56.7 1 55 C-0.32 54.34 -1.64 53.68 -3 53 C-1.515 52.505 -1.515 52.505 0 52 C0 34.84 0 17.68 0 0 Z M6 55 C5.67 56.65 5.34 58.3 5 60 C5.66 60.66 6.32 61.32 7 62 C6.67 62.99 6.34 63.98 6 65 C6.33 65.66 6.66 66.32 7 67 C9.97 67 12.94 67 16 67 C15.34 67.66 14.68 68.32 14 69 C34.46 69 54.92 69 76 69 C76 67.02 76 65.04 76 63 C76.33 62.34 76.66 61.68 77 61 C77 59.02 77 57.04 77 55 C53.57 55 30.14 55 6 55 Z " fill="#DB3136" transform="translate(313,18)"/>
<path d="M0 0 C47.85 0 95.7 0 145 0 C145 0.33 145 0.66 145 1 C110.66325498 1.83829726 76.34585804 2.09233678 42 2.0625 C41.00760693 2.06164398 40.01521385 2.06078796 38.99274826 2.05990601 C26.66181169 2.04848236 14.33091042 2.0275698 2 2 C2 11.9 2 21.8 2 32 C43.91 32 85.82 32 129 32 C129 32.33 129 32.66 129 33 C86.43 33 43.86 33 0 33 C0 22.11 0 11.22 0 0 Z " fill="#861C1E" transform="translate(19,115)"/>
<path d="M0 0 C6.27 0 12.54 0 19 0 C19 22.11 19 44.22 19 67 C19.66 67 20.32 67 21 67 C21 67.66 21 68.32 21 69 C21.66 69 22.32 69 23 69 C23 69.66 23 70.32 23 71 C21.125 70.6875 21.125 70.6875 19 70 C16.6229736 66.4344604 16.75659077 64.92128639 16.77294922 60.69262695 C16.77310028 59.39150467 16.77325134 58.09038239 16.77340698 56.74983215 C16.78362031 55.32931363 16.7940523 53.90879667 16.8046875 52.48828125 C16.80841817 51.03525487 16.81126489 49.58222597 16.81326294 48.12919617 C16.82089519 44.30688518 16.84054008 40.48472646 16.8626709 36.66247559 C16.88313817 32.7613328 16.89226654 28.86016539 16.90234375 24.95898438 C16.92378646 17.30591217 16.95896516 9.65299683 17 2 C12.38 2 7.76 2 3 2 C3.08563449 10.24110083 3.17945298 18.48198547 3.28752708 26.72281837 C3.33739077 30.54971341 3.3837213 34.37658217 3.421875 38.20361328 C3.45885375 41.89957785 3.50524707 45.59531713 3.55806351 49.2910881 C3.57654079 50.69837858 3.59167316 52.10571722 3.60334396 53.5130806 C3.62032026 55.49010019 3.6504862 57.46699302 3.68115234 59.44384766 C3.69447601 60.56747711 3.70779968 61.69110657 3.7215271 62.8487854 C4.01459531 66.16516134 4.82524026 68.89521774 6 72 C3.53199953 70.84826645 1.95216435 69.95216435 0 68 C-0.24050903 65.177948 -0.24050903 65.177948 -0.22705078 61.53076172 C-0.22734283 60.86722687 -0.22763489 60.20369202 -0.22793579 59.52005005 C-0.22654056 57.32313028 -0.21097067 55.12654814 -0.1953125 52.9296875 C-0.19158305 51.40797104 -0.18873576 49.88625219 -0.18673706 48.36453247 C-0.17909523 44.35643908 -0.15944213 40.3484903 -0.1373291 36.3404541 C-0.11688244 32.25172888 -0.10773788 28.16298034 -0.09765625 24.07421875 C-0.07619665 16.04940536 -0.04101014 8.02473732 0 0 Z " fill="#A8262A" transform="translate(301,1)"/>
<path d="M0 0 C0.99 0.495 0.99 0.495 2 1 C1.34 2.32 0.68 3.64 0 5 C-42.57 5 -85.14 5 -129 5 C-129 30.08 -129 55.16 -129 81 C-118.44 81 -107.88 81 -97 81 C-97 79.02 -97 77.04 -97 75 C-96.01 75.495 -96.01 75.495 -95 76 C-95 78.31 -95 80.62 -95 83 C-106.88 83 -118.76 83 -131 83 C-131 56.93 -131 30.86 -131 4 C-88.43 4 -45.86 4 -2 4 C-2 3.34 -2 2.68 -2 2 C-1.34 2 -0.68 2 0 2 C0 1.34 0 0.68 0 0 Z " fill="#8D1F23" transform="translate(150,172)"/>
<path d="M0 0 C1.21538405 0.00138269 1.21538405 0.00138269 2.45532131 0.00279331 C3.38225292 0.00141865 4.30918453 0.00004398 5.26420498 -0.00137234 C6.80168392 0.00402058 6.80168392 0.00402058 8.37022305 0.00952244 C9.97978123 0.0093034 9.97978123 0.0093034 11.62185574 0.00907993 C15.18765656 0.00977959 18.75340589 0.01757445 22.31919765 0.02539158 C24.78399534 0.02725557 27.24879339 0.02867956 29.71359158 0.0296793 C36.21558045 0.03350596 42.71754716 0.0433375 49.21952724 0.05438328 C55.84844957 0.06513035 62.47737833 0.06917624 69.10630703 0.0742197 C82.12389464 0.08495964 95.14146685 0.10184686 108.1590414 0.12304783 C108.6540414 2.10304783 108.6540414 2.10304783 109.1590414 4.12304783 C108.6640414 3.13304783 108.6640414 3.13304783 108.1590414 2.12304783 C106.38931973 2.2389426 106.38931973 2.2389426 104.58384609 2.35717869 C91.48683689 3.14963595 78.51840505 3.07702193 65.4090414 2.68554783 C63.42859139 2.63211433 61.44812248 2.57937694 59.46763515 2.5273447 C54.69784898 2.40055698 49.92841391 2.26451227 45.1590414 2.12304783 C45.1590414 2.78304783 45.1590414 3.44304783 45.1590414 4.12304783 C61.3290414 4.12304783 77.4990414 4.12304783 94.1590414 4.12304783 C94.1590414 4.45304783 94.1590414 4.78304783 94.1590414 5.12304783 C62.4790414 5.12304783 30.7990414 5.12304783 -1.8409586 5.12304783 C-2.1709586 3.80304783 -2.5009586 2.48304783 -2.8409586 1.12304783 C-1.8409586 0.12304783 -1.8409586 0.12304783 0 0 Z " fill="#F22A2E" transform="translate(236.84095859527588,247.87695217132568)"/>
<path d="M0 0 C21.12 0 42.24 0 64 0 C64 5.94 64 11.88 64 18 C43.21 18 22.42 18 1 18 C1 17.34 1 16.68 1 16 C21.13 16 41.26 16 62 16 C62 11.38 62 6.76 62 2 C43.52 2 25.04 2 6 2 C6.33 3.32 6.66 4.64 7 6 C6.01 6.66 5.02 7.32 4 8 C2.865625 7.773125 1.73125 7.54625 0.5625 7.3125 C-1.2009375 7.1578125 -1.2009375 7.1578125 -3 7 C-5.14283813 9.09190457 -5.14283813 9.09190457 -7 12 C-8.75528435 13.59246386 -10.57079711 15.08121164 -12.4140625 16.5703125 C-14.24893404 18.10625904 -14.24893404 18.10625904 -16 21 C-16.66 21 -17.32 21 -18 21 C-17.67 19.68 -17.34 18.36 -17 17 C-16.34 17 -15.68 17 -15 17 C-15 16.34 -15 15.68 -15 15 C-14.34 15 -13.68 15 -13 15 C-13 14.34 -13 13.68 -13 13 C-12.34 13 -11.68 13 -11 13 C-11 12.34 -11 11.68 -11 11 C-10.34 11 -9.68 11 -9 11 C-9 10.34 -9 9.68 -9 9 C-7.01739574 7.31267723 -5.0167658 5.64633943 -3 4 C-2.67 3.34 -2.34 2.68 -2 2 C-1.34 2 -0.68 2 0 2 C0 1.34 0 0.68 0 0 Z " fill="#B22A2E" transform="translate(117,1)"/>
<path d="M0 0 C7.24961654 -0.06949924 14.4991613 -0.12281062 21.74904346 -0.15543652 C25.11544877 -0.17109511 28.48162623 -0.19233621 31.84790039 -0.22631836 C35.71767249 -0.26261749 39.58712026 -0.2797075 43.45703125 -0.29296875 C45.27120293 -0.31619453 45.27120293 -0.31619453 47.12202454 -0.33988953 C48.24296005 -0.34011612 49.36389557 -0.34034271 50.51879883 -0.34057617 C51.50697098 -0.34723801 52.49514313 -0.35389984 53.51325989 -0.36076355 C56.37582494 0.05452276 57.24618714 0.75934702 59 3 C58.34 3 57.68 3 57 3 C57.01160156 3.96421875 57.02320313 4.9284375 57.03515625 5.921875 C57.04417969 7.18515625 57.05320312 8.4484375 57.0625 9.75 C57.07410156 11.00296875 57.08570313 12.2559375 57.09765625 13.546875 C57.02021027 16.28536501 56.82780815 18.41880293 56 21 C54.68 21.33 53.36 21.66 52 22 C54.64 22.33 57.28 22.66 60 23 C60 21.35 60 19.7 60 18 C61.98 18.66 63.96 19.32 66 20 C65.319375 20.680625 64.63875 21.36125 63.9375 22.0625 C63.48761719 22.51367188 63.03773438 22.96484375 62.57421875 23.4296875 C61.43607014 24.56501192 60.29208825 25.69449869 59.14453125 26.8203125 C58.51933594 27.43648437 57.89414063 28.05265625 57.25 28.6875 C56.65703125 29.26886719 56.0640625 29.85023437 55.453125 30.44921875 C53.90358196 31.95513974 53.90358196 31.95513974 53 34 C30.89 34 8.78 34 -14 34 C-13.67 33.01 -13.34 32.02 -13 31 C8.45 31.33 29.9 31.66 52 32 C52 31.34 52 30.68 52 30 C50.68 29.67 49.36 29.34 48 29 C49.98 29 51.96 29 54 29 C53.505 27.515 53.505 27.515 53 26 C51.515 25.505 51.515 25.505 50 25 C50 24.34 50 23.68 50 23 C49.34 23 48.68 23 48 23 C47.34 21.02 46.68 19.04 46 17 C47.98 17 49.96 17 52 17 C52 16.34 52 15.68 52 15 C52.66 15 53.32 15 54 15 C54 10.38 54 5.76 54 1 C36.18 1 18.36 1 0 1 C0 0.67 0 0.34 0 0 Z " fill="#CC3438" transform="translate(113,55)"/>
<path d="M0 0 C1.12588014 0.95729916 2.2506715 1.91587895 3.375 2.875 C4.00148438 3.40867187 4.62796875 3.94234375 5.2734375 4.4921875 C8.97016315 7.72054972 8.97016315 7.72054972 9.24050903 10.25259399 C9.23606781 11.18969208 9.23162659 12.12679016 9.22705078 13.09228516 C9.22682419 14.68370834 9.22682419 14.68370834 9.22659302 16.30728149 C9.21627045 17.45626923 9.20594788 18.60525696 9.1953125 19.7890625 C9.1924826 20.96262299 9.18965271 22.13618347 9.18673706 23.3453064 C9.17551355 27.10530662 9.15040492 30.86507139 9.125 34.625 C9.11497301 37.1692674 9.10584668 39.71353852 9.09765625 42.2578125 C9.07556714 48.5052891 9.04206824 54.75262773 9 61 C9.78246094 60.91621094 10.56492187 60.83242187 11.37109375 60.74609375 C12.88896484 60.59333984 12.88896484 60.59333984 14.4375 60.4375 C15.95150391 60.28087891 15.95150391 60.28087891 17.49609375 60.12109375 C18.32238281 60.08113281 19.14867188 60.04117188 20 60 C21 61 21 61 21.09765625 64.81640625 C21.09098089 66.39846682 21.07901875 67.98051159 21.0625 69.5625 C21.05798828 70.36880859 21.05347656 71.17511719 21.04882812 72.00585938 C21.03700518 74.00393756 21.01906914 76.00197783 21 78 C19.515 77.505 19.515 77.505 18 77 C18.66 77 19.32 77 20 77 C19.835 76.195625 19.67 75.39125 19.5 74.5625 C18.90330504 70.31104843 18.93497822 66.29143749 19 62 C15.37 62 11.74 62 8 62 C7.7525 61.030625 7.505 60.06125 7.25 59.0625 C6.8375 58.051875 6.425 57.04125 6 56 C4.68 55.67 3.36 55.34 2 55 C2 44.77 2 34.54 2 24 C2.99 23.67 3.98 23.34 5 23 C6.1194613 20.1085914 6.10768197 17.32237388 6.0625 14.25 C6.05347656 13.45078125 6.04445313 12.6515625 6.03515625 11.828125 C6.02355469 11.22484375 6.01195313 10.6215625 6 10 C5.34 9.67 4.68 9.34 4 9 C3.375 6.4375 3.375 6.4375 3 4 C2.34 4 1.68 4 1 4 C0.67 2.68 0.34 1.36 0 0 Z " fill="#C73235" transform="translate(67,11)"/>
<path d="M0 0 C8.04925101 -0.02314421 16.09848817 -0.04092572 24.14776421 -0.05181217 C27.8851425 -0.05703644 31.62249807 -0.06412584 35.35986328 -0.07543945 C38.96489816 -0.0862845 42.56991116 -0.09228028 46.17496109 -0.09487724 C47.55210846 -0.09672857 48.92925459 -0.1003436 50.30639267 -0.10573006 C52.23143094 -0.11296181 54.15649112 -0.11340824 56.08154297 -0.11352539 C57.17852509 -0.115746 58.2755072 -0.11796661 59.4057312 -0.12025452 C62 0 62 0 64 1 C64 1.66 64 2.32 64 3 C64.66 3 65.32 3 66 3 C66.495 4.98 66.495 4.98 67 7 C71.7897321 7.23428313 71.7897321 7.23428313 76 5 C76 6.32 76 7.64 76 9 C76.99 9 77.98 9 79 9 C79.495 10.485 79.495 10.485 80 12 C80.99 12.495 80.99 12.495 82 13 C81.125 17.75 81.125 17.75 80 20 C80.66 20 81.32 20 82 20 C82.495 21.485 82.495 21.485 83 23 C83.66 23.33 84.32 23.66 85 24 C85.85056945 27.55692677 86.16909807 29.49270578 85 33 C85.66 33.33 86.32 33.66 87 34 C86.67 35.32 86.34 36.64 86 38 C81.9590561 34.38138753 79.2458149 30.07240118 76.3125 25.5625 C75.25240795 23.94849187 74.19119967 22.33521636 73.12890625 20.72265625 C72.60441895 19.92617676 72.07993164 19.12969727 71.53955078 18.30908203 C68.63066245 13.94621082 65.58836207 9.6772744 62.546875 5.40625 C61 3 61 3 61 1 C40.87 1 20.74 1 0 1 C0 0.67 0 0.34 0 0 Z " fill="#D73235" transform="translate(53,205)"/>
<path d="M0 0 C-1 1 -1 1 -3.54374027 1.12304783 C-5.25689253 1.12166514 -5.25689253 1.12166514 -7.00465393 1.12025452 C-8.96300674 1.12231651 -8.96300674 1.12231651 -10.96092224 1.12442017 C-12.42129539 1.12088055 -13.88166831 1.11724573 -15.34204102 1.11352539 C-16.86926268 1.11324353 -18.39648447 1.11340123 -19.92370605 1.1139679 C-24.08261688 1.11425591 -28.24149911 1.10835855 -32.40040326 1.10139394 C-36.74194524 1.09516106 -41.08348781 1.09455665 -45.42503357 1.09336853 C-53.65213582 1.09025502 -61.87922486 1.08204137 -70.10632128 1.07201904 C-79.47013064 1.06085851 -88.83394062 1.05534761 -98.19775498 1.05032361 C-117.46517749 1.03985877 -136.73258769 1.02225895 -156 1 C-156 0.34 -156 -0.32 -156 -1 C-135.95552487 -1.17713065 -115.91098654 -1.34281411 -95.8663044 -1.49477577 C-86.55974122 -1.56559868 -77.25323674 -1.64020301 -67.94677734 -1.72363281 C-59.83765084 -1.79631935 -51.72850349 -1.86198907 -43.61925209 -1.91914403 C-39.32331404 -1.94966974 -35.02746994 -1.98376907 -30.73163223 -2.02626419 C-26.6917972 -2.06611621 -22.65200161 -2.0966163 -18.61203766 -2.11981392 C-17.12607142 -2.1300188 -15.64012453 -2.14369761 -14.1542244 -2.16103554 C-12.13188224 -2.18412322 -10.10939927 -2.19372222 -8.08694458 -2.20254517 C-6.95313921 -2.2117631 -5.81933384 -2.22098103 -4.65117073 -2.23047829 C-2 -2 -2 -2 0 0 Z " fill="#A32F32" transform="translate(391,254)"/>
<path d="M0 0 C0.33 0 0.66 0 1 0 C2.0770388 6.11011049 2.13492321 12.06494342 2.11352539 18.25952148 C2.11367142 19.37245071 2.11381744 20.48537994 2.1139679 21.6320343 C2.11327359 25.29507424 2.10550379 28.95806274 2.09765625 32.62109375 C2.09579036 35.16699699 2.09436726 37.71290059 2.09336853 40.25880432 C2.08994603 46.26512949 2.08207184 52.27143273 2.07201904 58.27774912 C2.06081822 65.11937485 2.05533747 71.96100149 2.05032361 78.80263412 C2.03988809 92.86843287 2.02231345 106.93421543 2 121 C1.34 120.67 0.68 120.34 0 120 C0 80.4 0 40.8 0 0 Z " fill="#E43237" transform="translate(214,117)"/>
<path d="M0 0 C4.81035973 4.3730543 8.59926143 9.46277438 12 15 C12 15.66 12 16.32 12 17 C5.86225943 17.27276304 -0.2719311 17.47187964 -6.41430664 17.60424805 C-8.5011948 17.65943447 -10.58766006 17.73440906 -12.6730957 17.82983398 C-30.0929724 18.60672808 -30.0929724 18.60672808 -34.96435547 14.50244141 C-36.74956428 11.69711327 -38.01270425 9.16772267 -39 6 C-38.01 5.67 -37.02 5.34 -36 5 C-36 5.66 -36 6.32 -36 7 C-35.34 7 -34.68 7 -34 7 C-31 12.75 -31 12.75 -31 15 C-15.655 14.505 -15.655 14.505 0 14 C-0.495 10.535 -0.495 10.535 -1 7 C-0.01 6.67 0.98 6.34 2 6 C2 5.34 2 4.68 2 4 C1.34 4 0.68 4 0 4 C0 2.68 0 1.36 0 0 Z " fill="#D73235" transform="translate(178,238)"/>
<path d="M0 0 C41.25 0 82.5 0 125 0 C126.125 9 126.125 9 125.87890625 13.375 C125.83056641 14.29667969 125.78222656 15.21835938 125.73242188 16.16796875 C125.67634766 17.10253906 125.62027344 18.03710938 125.5625 19 C125.51029297 19.96550781 125.45808594 20.93101562 125.40429688 21.92578125 C125.27586364 24.2842825 125.14096811 26.64222045 125 29 C124.67 29 124.34 29 124 29 C123.82790015 26.75040906 123.66267174 24.50029236 123.5 22.25 C123.4071875 20.99703125 123.314375 19.7440625 123.21875 18.453125 C122.94964278 12.97487096 123 7.4848597 123 2 C82.41 1.67 41.82 1.34 0 1 C0 0.67 0 0.34 0 0 Z " fill="#A32F32" transform="translate(265,223)"/>
<path d="M0 0 C20.13 0 40.26 0 61 0 C61 0.33 61 0.66 61 1 C41.2 1 21.4 1 1 1 C1 14.2 1 27.4 1 41 C0.67 41 0.34 41 0 41 C0 27.47 0 13.94 0 0 Z " fill="#8D1F23" transform="translate(53,206)"/>
<path d="M0 0 C15.51 0 31.02 0 47 0 C47.495 0.99 47.495 0.99 48 2 C32.16 2 16.32 2 0 2 C0 1.34 0 0.68 0 0 Z " fill="#F4292D" transform="translate(282,250)"/>
<path d="M0 0 C27.06 0 54.12 0 82 0 C82 0.33 82 0.66 82 1 C54.94 1 27.88 1 0 1 C0 0.67 0 0.34 0 0 Z " fill="#C73235" transform="translate(3,88)"/>
<path d="M0 0 C19.8 0 39.6 0 60 0 C60 0.33 60 0.66 60 1 C40.53 1 21.06 1 1 1 C1 5.29 1 9.58 1 14 C0.67 14 0.34 14 0 14 C0 9.38 0 4.76 0 0 Z " fill="#CC3438" transform="translate(99,72)"/>
<path d="M0 0 C0.99 0 1.98 0 3 0 C3 0.99 3 1.98 3 3 C3.66 3 4.32 3 5 3 C10 8.47619048 10 8.47619048 10 11 C10.66 11 11.32 11 12 11 C12 11.66 12 12.32 12 13 C14.31 13 16.62 13 19 13 C19.33 14.32 19.66 15.64 20 17 C11.68645492 14.97911849 6.90119621 12.81736344 1.625 5.875 C0 3 0 3 0 0 Z " fill="#E43237" transform="translate(215,238)"/>
<path d="M0 0 C17.82 0.33 35.64 0.66 54 1 C54 1.33 54 1.66 54 2 C36.51 2 19.02 2 1 2 C1 6.95 1 11.9 1 17 C0.67 17 0.34 17 0 17 C0 11.39 0 5.78 0 0 Z " fill="#C73235" transform="translate(3,71)"/>
<path d="M0 0 C1.32 0.33 2.64 0.66 4 1 C4 1.66 4 2.32 4 3 C22.48 3 40.96 3 60 3 C60 3.33 60 3.66 60 4 C40.86 4 21.72 4 2 4 C1.34 2.68 0.68 1.36 0 0 Z " fill="#DC2E33" transform="translate(224,85)"/>
<path d="" fill="#000000" transform="translate(0,0)"/>
</svg>
