<svg version="1.1" id="Layer_1" xmlns="http://www.w3.org/2000/svg" xmlns:xlink="http://www.w3.org/1999/xlink" x="0px" y="0px"
	 width="100%" viewBox="0 0 391 257" enable-background="new 0 0 391 257" xml:space="preserve">
<path fill="#020000" opacity="1.000000" stroke="none" 
	d="
M392.000000,89.000000 
	C392.000000,133.687561 392.000000,178.375122 391.686768,223.952103 
	C388.586639,224.602127 385.800201,224.159271 383.012878,224.153915 
	C343.013733,224.077087 303.014435,224.075394 263.015259,224.014893 
	C253.989517,224.001251 250.793274,220.765381 250.788528,211.826508 
	C250.773666,183.826782 250.778610,155.827057 250.775986,127.827332 
	C250.775650,124.367020 250.775925,120.906708 250.775925,116.841103 
	C238.984497,116.841103 227.711548,116.756966 216.446762,117.021370 
	C215.655594,117.039948 214.266769,119.632385 214.262161,121.031609 
	C214.141281,157.694519 213.874069,194.361481 214.322693,231.019287 
	C214.483932,244.196121 224.638672,255.207672 237.538193,255.242691 
	C262.203461,255.309631 286.869171,255.284592 311.534576,255.241333 
	C338.356445,255.194305 365.178192,255.083176 392.000000,255.000000 
	C392.000000,255.999359 392.000000,256.998718 392.000000,257.998535 
	C261.750244,257.999023 131.500458,257.999023 1.125347,257.999023 
	C1.125347,172.333466 1.125347,86.666756 1.125347,1.000000 
	C13.077870,1.000000 25.070276,1.000000 37.844604,1.345760 
	C36.723061,2.023497 34.822395,2.622367 32.915661,2.642345 
	C23.468885,2.741322 14.020507,2.687452 4.407406,2.687452 
	C4.407406,8.486867 4.407406,13.708577 4.407406,19.563589 
	C6.998899,19.563589 9.293771,19.563990 11.588642,19.563522 
	C24.084110,19.560982 36.579670,19.528757 49.075008,19.567368 
	C55.829548,19.588238 58.026306,21.761131 58.041431,28.276955 
	C58.059223,35.940872 58.041229,43.604874 58.040127,51.268837 
	C58.039104,58.378445 58.039902,65.488052 58.039902,73.053436 
	C39.892406,73.053436 22.314672,73.053436 4.095478,73.053436 
	C4.095478,77.284294 4.309082,81.082115 4.036017,84.844620 
	C3.757249,88.685730 4.944592,90.002960 9.022873,89.971458 
	C33.346550,89.783585 57.672462,89.885315 81.997627,89.889771 
	C83.971016,89.890129 85.944405,89.889816 88.388298,89.889816 
	C88.388298,84.133705 88.388298,78.787361 88.388298,73.038734 
	C85.923866,73.038734 83.745735,72.792076 81.644569,73.089386 
	C77.078644,73.735466 75.997574,71.719856 76.099121,67.465500 
	C76.357475,56.641891 75.472252,45.746296 76.396965,34.995827 
	C77.324883,24.207993 74.376068,16.007608 65.632545,9.543173 
	C62.626244,7.320494 60.518326,3.882694 58.000000,1.000001 
	C98.020897,1.000000 138.041794,1.000000 178.873077,1.331270 
	C177.796021,2.021750 175.910477,2.680176 174.020798,2.692275 
	C160.362671,2.779725 146.691177,3.090952 133.049484,2.608517 
	C124.133629,2.293209 115.934235,2.596976 110.491554,11.017518 
	C110.419067,11.129665 110.165871,11.108178 110.038940,11.204375 
	C102.272690,17.090099 97.912071,24.428741 99.972160,34.570107 
	C100.199837,35.690903 99.759781,36.968811 100.070244,38.046902 
	C100.738991,40.369141 101.174141,43.047840 102.643021,44.789425 
	C105.574196,48.264782 108.957336,51.432545 112.516327,54.273148 
	C114.247688,55.655029 116.785645,56.695457 118.974991,56.726540 
	C133.962723,56.939301 148.954956,56.819427 163.945374,56.886200 
	C165.332138,56.892376 167.845169,57.281059 167.921478,57.783028 
	C168.480377,61.459995 169.255310,65.347916 168.566498,68.898575 
	C167.943253,72.111198 164.863144,73.166534 161.241074,73.128891 
	C142.753876,72.936813 124.263573,73.044510 105.774353,73.047264 
	C104.016624,73.047531 102.258904,73.047302 100.370857,73.047302 
	C100.370857,79.014572 100.370857,84.243248 100.370857,89.879860 
	C116.515556,89.879860 132.361938,89.078461 148.082718,90.139046 
	C160.178009,90.955040 169.668945,88.276642 176.761703,78.186241 
	C178.151840,76.208611 180.545166,74.958893 182.087326,73.058235 
	C183.344208,71.509209 184.683807,69.540497 184.828659,67.668282 
	C185.243835,62.302040 184.595551,56.832157 185.246536,51.510818 
	C186.095398,44.572300 182.010178,39.089500 175.070877,39.081944 
	C158.247391,39.063622 141.423553,39.023140 124.600647,39.123871 
	C120.982956,39.145527 118.369560,37.936615 117.429359,34.412704 
	C116.971870,32.698048 117.284866,30.769512 117.300957,28.938253 
	C117.369476,21.142279 118.945915,19.574707 126.575829,19.576670 
	C142.899475,19.580872 159.223145,19.579912 175.546738,19.546284 
	C177.484268,19.542294 179.421341,19.321474 181.761795,19.176126 
	C181.761795,16.847830 181.738174,15.038424 181.766617,13.229836 
	C181.830734,9.153009 181.920609,5.076587 182.000000,1.000000 
	C187.354935,1.000000 192.709854,1.000000 198.903198,1.358557 
	C199.375427,3.805671 198.703949,5.892414 198.691513,7.983076 
	C198.595505,24.121143 198.524490,40.261353 198.742081,56.396893 
	C198.771011,58.541969 199.972275,61.132370 201.473724,62.718372 
	C208.826889,70.485710 216.415482,78.033676 224.041656,85.536407 
	C225.754852,87.221855 227.930695,89.613350 229.929642,89.648872 
	C248.557297,89.979950 267.193085,89.904396 285.825470,89.783264 
	C286.847748,89.776619 288.689941,88.370354 288.740448,87.530746 
	C289.024994,82.800697 288.877808,78.044678 288.877808,72.776199 
	C270.362579,72.776199 252.582626,72.776199 234.739243,72.587433 
	C234.496704,72.176895 234.266449,72.041985 233.984467,72.003510 
	C233.983856,72.013069 234.002731,72.016487 233.898834,71.722923 
	C232.948502,70.864067 232.102097,70.298775 231.129974,69.826096 
	C231.004257,69.918716 231.253387,69.722984 231.053085,69.455551 
	C229.715698,67.186806 228.578613,65.185478 227.349792,63.189766 
	C227.258057,63.195381 227.270691,63.378757 227.529877,63.277748 
	C227.991348,62.873993 228.193619,62.571243 228.343018,62.271935 
	C228.290176,62.275375 228.298843,62.380939 228.564423,62.275711 
	C229.384125,61.649433 229.938278,61.128384 230.537338,60.609406 
	C230.582245,60.611477 230.590134,60.521923 230.833466,60.389175 
	C231.367523,59.821537 231.658234,59.386654 231.974472,58.975426 
	C232.000000,58.999084 231.950027,58.948963 232.232071,58.817226 
	C232.986511,58.107075 233.458908,57.528660 233.966644,56.964279 
	C234.001953,56.978313 233.942551,56.929749 234.226883,56.807068 
	C234.979843,56.102180 235.448471,55.519970 235.956848,54.953987 
	C235.996582,54.970219 235.931458,54.913792 236.245514,54.804230 
	C237.698349,53.453220 238.837143,52.211773 239.986847,50.983139 
	C239.997772,50.995949 239.970947,50.978283 240.267136,50.876640 
	C241.057083,50.192764 241.550827,49.610527 242.023712,49.012997 
	C242.002823,48.997707 242.025848,49.043877 242.324127,48.971138 
	C243.104126,48.276119 243.585846,47.653835 244.038361,47.022743 
	C244.009171,47.013939 244.035370,47.069019 244.384842,47.032494 
	C248.307739,43.467583 251.881165,39.939201 255.419235,36.406033 
	C255.383896,36.401245 255.386261,36.472515 255.620209,36.361000 
	C256.125427,35.832424 256.396698,35.415367 256.768677,34.973568 
	C256.869385,34.948822 256.949768,34.757641 257.250671,34.664940 
	C258.966797,33.038414 260.382050,31.504591 261.875061,29.941101 
	C261.952820,29.911434 261.957458,29.745037 262.216797,29.653095 
	C262.924194,29.005444 263.372284,28.449738 263.858337,27.890285 
	C263.896271,27.886538 263.888214,27.810722 264.157013,27.717402 
	C264.897675,27.057917 265.369568,26.491753 266.139771,25.768219 
	C273.958740,17.407232 281.479370,9.203615 289.000000,0.999999 
	C293.024536,1.000000 297.049103,1.000000 301.975525,1.179395 
	C302.764832,1.672089 302.553009,1.985644 302.553802,2.298647 
	C302.609650,23.932495 302.605591,45.567280 302.882812,67.198463 
	C302.908234,69.182007 304.328918,71.553200 305.810059,73.037560 
	C310.507660,77.745300 315.565094,82.092209 320.434601,86.630966 
	C322.942169,88.968216 325.619812,90.039253 329.255249,89.995659 
	C348.238708,89.767990 367.226349,89.907227 386.212250,89.839020 
	C388.142487,89.832085 390.070801,89.292435 392.000000,89.000000 
M95.499222,207.138824 
	C100.829643,207.151093 106.176773,206.928223 111.481262,207.305283 
	C113.297340,207.434387 115.646576,208.621048 116.664047,210.082260 
	C125.337013,222.537720 133.925217,235.060181 142.180893,247.794601 
	C145.864868,253.477188 149.764725,256.979095 157.290298,256.068329 
	C164.515350,255.193939 171.928299,255.871552 179.258682,255.868408 
	C182.835236,255.866882 186.411804,255.868164 191.613144,255.868164 
	C179.252640,239.110886 167.801208,223.586060 155.684235,207.158936 
	C158.753967,207.158936 160.542816,207.106094 162.327744,207.167404 
	C175.236053,207.610733 184.653290,198.131119 184.864059,184.945953 
	C185.101028,170.122406 185.159256,155.286713 184.839813,140.466110 
	C184.498703,124.640495 172.684067,116.820709 162.491516,116.797325 
	C116.881805,116.692650 71.271645,116.787659 25.661863,116.699295 
	C22.002634,116.692207 20.674818,117.816292 20.769072,121.561996 
	C20.990322,130.354645 20.839888,139.156662 20.839888,148.560516 
	C22.538879,148.560516 24.496431,148.560181 26.453983,148.560562 
	C64.272171,148.568100 102.090363,148.574081 139.908554,148.587082 
	C142.406952,148.587936 144.949661,148.363129 147.391159,148.750854 
	C149.806473,149.134399 151.751633,149.870926 151.429916,153.498383 
	C151.011856,158.212097 151.776245,163.029663 152.018600,167.803192 
	C152.408768,175.488235 150.830017,177.163925 143.077850,177.167740 
	C104.593140,177.186661 66.108421,177.190659 27.623711,177.199814 
	C25.524685,177.200317 23.425659,177.199875 20.885138,177.199875 
	C20.885138,202.801605 20.856478,227.596085 20.995192,252.389618 
	C21.000465,253.332138 22.609089,255.065216 23.495085,255.081329 
	C33.936680,255.271164 44.382961,255.203323 55.183624,255.203323 
	C55.183624,238.937576 55.183624,223.288483 55.183624,207.138824 
	C68.576538,207.138824 81.538071,207.138824 95.499222,207.138824 
z"/>
<path fill="#EF2C30" opacity="1.000000" stroke="none" 
	d="
M392.000000,254.531342 
	C365.178192,255.083176 338.356445,255.194305 311.534576,255.241333 
	C286.869171,255.284592 262.203461,255.309631 237.538193,255.242691 
	C224.638672,255.207672 214.483932,244.196121 214.322693,231.019287 
	C213.874069,194.361481 214.141281,157.694519 214.262161,121.031609 
	C214.266769,119.632385 215.655594,117.039948 216.446762,117.021370 
	C227.711548,116.756966 238.984497,116.841103 250.775925,116.841103 
	C250.775925,120.906708 250.775650,124.367020 250.775986,127.827332 
	C250.778610,155.827057 250.773666,183.826782 250.788528,211.826508 
	C250.793274,220.765381 253.989517,224.001251 263.015259,224.014893 
	C303.014435,224.075394 343.013733,224.077087 383.012878,224.153915 
	C385.800201,224.159271 388.586639,224.602127 391.686768,224.420761 
	C392.000000,234.020889 392.000000,244.041794 392.000000,254.531342 
z"/>
<path fill="#020000" opacity="1.000000" stroke="none" 
	d="
M307.000000,1.000004 
	C335.254181,1.000000 363.508331,1.000000 392.000000,1.000000 
	C392.000000,24.687033 392.000000,48.374859 391.577423,72.758217 
	C389.345520,73.319870 387.536407,73.072861 385.726837,73.069557 
	C367.115265,73.035614 348.503571,73.044312 329.891937,73.033905 
	C323.364990,73.030258 320.299194,70.028992 320.291229,63.508358 
	C320.268677,45.063362 320.288910,26.618315 320.292175,8.173288 
	C320.292480,6.423810 320.292206,4.674332 320.292206,2.724498 
	C316.264038,2.724498 312.973816,2.849238 309.704132,2.645419 
	C308.772186,2.587328 307.899719,1.574840 307.000000,1.000004 
z"/>
<path fill="#EA2D31" opacity="1.000000" stroke="none" 
	d="
M181.625000,1.000000 
	C181.920609,5.076587 181.830734,9.153009 181.766617,13.229836 
	C181.738174,15.038424 181.761795,16.847830 181.761795,19.176126 
	C179.421341,19.321474 177.484268,19.542294 175.546738,19.546284 
	C159.223145,19.579912 142.899475,19.580872 126.575829,19.576670 
	C118.945915,19.574707 117.369476,21.142279 117.300957,28.938253 
	C117.284866,30.769512 116.971870,32.698048 117.429359,34.412704 
	C118.369560,37.936615 120.982956,39.145527 124.600647,39.123871 
	C141.423553,39.023140 158.247391,39.063622 175.070877,39.081944 
	C182.010178,39.089500 186.095398,44.572300 185.246536,51.510818 
	C184.595551,56.832157 185.243835,62.302040 184.828659,67.668282 
	C184.683807,69.540497 183.344208,71.509209 182.087326,73.058235 
	C180.545166,74.958893 178.151840,76.208611 176.761703,78.186241 
	C169.668945,88.276642 160.178009,90.955040 148.082718,90.139046 
	C132.361938,89.078461 116.515556,89.879860 100.370857,89.879860 
	C100.370857,84.243248 100.370857,79.014572 100.370857,73.047302 
	C102.258904,73.047302 104.016624,73.047531 105.774353,73.047264 
	C124.263573,73.044510 142.753876,72.936813 161.241074,73.128891 
	C164.863144,73.166534 167.943253,72.111198 168.566498,68.898575 
	C169.255310,65.347916 168.480377,61.459995 167.921478,57.783028 
	C167.845169,57.281059 165.332138,56.892376 163.945374,56.886200 
	C148.954956,56.819427 133.962723,56.939301 118.974991,56.726540 
	C116.785645,56.695457 114.247688,55.655029 112.516327,54.273148 
	C108.957336,51.432545 105.574196,48.264782 102.643021,44.789425 
	C101.174141,43.047840 100.738991,40.369141 100.070244,38.046902 
	C99.759781,36.968811 100.199837,35.690903 99.972160,34.570107 
	C97.912071,24.428741 102.272690,17.090099 110.038940,11.204375 
	C110.165871,11.108178 110.419067,11.129665 110.491554,11.017518 
	C115.934235,2.596976 124.133629,2.293209 133.049484,2.608517 
	C146.691177,3.090952 160.362671,2.779725 174.020798,2.692275 
	C175.910477,2.680176 177.796021,2.021750 179.341736,1.331270 
	C179.750000,1.000000 180.500000,1.000000 181.625000,1.000000 
z"/>
<path fill="#EA2D31" opacity="1.000000" stroke="none" 
	d="
M288.600006,0.999999 
	C281.479370,9.203615 273.958740,17.407232 265.867401,25.856079 
	C264.827209,26.671114 264.357697,27.240919 263.888214,27.810722 
	C263.888214,27.810722 263.896271,27.886538 263.598999,27.987186 
	C262.853638,28.640236 262.405548,29.192640 261.957458,29.745041 
	C261.957458,29.745037 261.952820,29.911434 261.553864,30.025822 
	C259.753204,31.679356 258.351501,33.218502 256.949768,34.757645 
	C256.949768,34.757641 256.869385,34.948822 256.534332,35.069679 
	C255.928268,35.617859 255.657272,36.045189 255.386261,36.472515 
	C255.386261,36.472515 255.383896,36.401245 255.062164,36.435753 
	C251.172073,40.003181 247.603729,43.536102 244.035370,47.069023 
	C244.035370,47.069019 244.009171,47.013939 243.761414,47.135887 
	C243.017731,47.853180 242.521790,48.448528 242.025848,49.043877 
	C242.025848,49.043877 242.002823,48.997707 241.739441,49.108528 
	C240.974350,49.805660 240.472656,50.391975 239.970947,50.978287 
	C239.970947,50.978283 239.997772,50.995949 239.670242,51.075539 
	C238.205627,52.408012 237.068542,53.660904 235.931458,54.913792 
	C235.931458,54.913792 235.996582,54.970219 235.683044,55.062393 
	C234.893845,55.746296 234.418198,56.338020 233.942551,56.929749 
	C233.942551,56.929749 234.001953,56.978313 233.687836,57.066875 
	C232.899139,57.753281 232.424591,58.351120 231.950027,58.948963 
	C231.950027,58.948963 232.000000,58.999084 231.733475,59.099701 
	C231.174683,59.640858 230.882401,60.081390 230.590134,60.521923 
	C230.590134,60.521923 230.582245,60.611477 230.233154,60.650734 
	C229.355652,61.253635 228.827240,61.817287 228.298843,62.380939 
	C228.298843,62.380939 228.290176,62.275375 228.099609,62.395195 
	C227.696274,62.802929 227.483475,63.090839 227.270691,63.378754 
	C227.270691,63.378757 227.258057,63.195381 227.065567,63.392220 
	C225.267288,67.823097 228.241592,68.786423 231.253387,69.722984 
	C231.253387,69.722984 231.004257,69.918716 231.203735,70.146912 
	C232.269714,70.922234 233.136215,71.469360 234.002731,72.016487 
	C234.002731,72.016487 233.983856,72.013069 234.084518,72.173569 
	C234.357010,72.529015 234.562851,72.676399 234.802689,72.776199 
	C252.582626,72.776199 270.362579,72.776199 288.877808,72.776199 
	C288.877808,78.044678 289.024994,82.800697 288.740448,87.530746 
	C288.689941,88.370354 286.847748,89.776619 285.825470,89.783264 
	C267.193085,89.904396 248.557297,89.979950 229.929642,89.648872 
	C227.930695,89.613350 225.754852,87.221855 224.041656,85.536407 
	C216.415482,78.033676 208.826889,70.485710 201.473724,62.718372 
	C199.972275,61.132370 198.771011,58.541969 198.742081,56.396893 
	C198.524490,40.261353 198.595505,24.121143 198.691513,7.983076 
	C198.703949,5.892414 199.375427,3.805671 199.370819,1.358557 
	C199.750000,1.000000 200.500000,1.000000 201.336151,1.358783 
	C206.413467,2.273634 211.404648,2.829701 216.853302,3.436736 
	C216.853302,20.839821 216.853302,38.041393 216.853302,55.960880 
	C220.017227,52.978085 222.637405,50.654396 225.092957,48.168102 
	C236.968887,36.143391 248.958725,24.224855 260.581879,11.959458 
	C266.483154,5.732121 272.432373,0.627134 281.834320,2.635824 
	C282.732056,2.827627 283.937439,1.579598 285.000000,0.999998 
	C286.066681,1.000000 287.133331,1.000000 288.600006,0.999999 
z"/>
<path fill="#EB2D31" opacity="1.000000" stroke="none" 
	d="
M57.571537,1.000001 
	C60.518326,3.882694 62.626244,7.320494 65.632545,9.543173 
	C74.376068,16.007608 77.324883,24.207993 76.396965,34.995827 
	C75.472252,45.746296 76.357475,56.641891 76.099121,67.465500 
	C75.997574,71.719856 77.078644,73.735466 81.644569,73.089386 
	C83.745735,72.792076 85.923866,73.038734 88.388298,73.038734 
	C88.388298,78.787361 88.388298,84.133705 88.388298,89.889816 
	C85.944405,89.889816 83.971016,89.890129 81.997627,89.889771 
	C57.672462,89.885315 33.346550,89.783585 9.022873,89.971458 
	C4.944592,90.002960 3.757249,88.685730 4.036017,84.844620 
	C4.309082,81.082115 4.095478,77.284294 4.095478,73.053436 
	C22.314672,73.053436 39.892406,73.053436 58.039902,73.053436 
	C58.039902,65.488052 58.039104,58.378445 58.040127,51.268837 
	C58.041229,43.604874 58.059223,35.940872 58.041431,28.276955 
	C58.026306,21.761131 55.829548,19.588238 49.075008,19.567368 
	C36.579670,19.528757 24.084110,19.560982 11.588642,19.563522 
	C9.293771,19.563990 6.998899,19.563589 4.407406,19.563589 
	C4.407406,13.708577 4.407406,8.486867 4.407406,2.687452 
	C14.020507,2.687452 23.468885,2.741322 32.915661,2.642345 
	C34.822395,2.622367 36.723061,2.023497 38.313263,1.345760 
	C39.066669,1.000000 40.133339,1.000000 41.308372,1.347489 
	C44.932915,1.918261 48.449089,2.141544 51.965267,2.364826 
	C51.976845,1.909884 51.988422,1.454942 52.000000,1.000000 
	C53.714359,1.000000 55.428715,1.000000 57.571537,1.000001 
z"/>
<path fill="#EC2E32" opacity="1.000000" stroke="none" 
	d="
M306.583344,1.000004 
	C307.899719,1.574840 308.772186,2.587328 309.704132,2.645419 
	C312.973816,2.849238 316.264038,2.724498 320.292206,2.724498 
	C320.292206,4.674332 320.292480,6.423810 320.292175,8.173288 
	C320.288910,26.618315 320.268677,45.063362 320.291229,63.508358 
	C320.299194,70.028992 323.364990,73.030258 329.891937,73.033905 
	C348.503571,73.044312 367.115265,73.035614 385.726837,73.069557 
	C387.536407,73.072861 389.345520,73.319870 391.577423,73.226875 
	C392.000000,78.022095 392.000000,83.044182 392.000000,88.533134 
	C390.070801,89.292435 388.142487,89.832085 386.212250,89.839020 
	C367.226349,89.907227 348.238708,89.767990 329.255249,89.995659 
	C325.619812,90.039253 322.942169,88.968216 320.434601,86.630966 
	C315.565094,82.092209 310.507660,77.745300 305.810059,73.037560 
	C304.328918,71.553200 302.908234,69.182007 302.882812,67.198463 
	C302.605591,45.567280 302.609650,23.932495 302.553802,2.298647 
	C302.553009,1.985644 302.764832,1.672089 302.438721,1.179395 
	C303.388885,1.000000 304.777802,1.000000 306.583344,1.000004 
z"/>
<path fill="#020000" opacity="1.000000" stroke="none" 
	d="
M284.531342,0.999998 
	C283.937439,1.579598 282.732056,2.827627 281.834320,2.635824 
	C272.432373,0.627134 266.483154,5.732121 260.581879,11.959458 
	C248.958725,24.224855 236.968887,36.143391 225.092957,48.168102 
	C222.637405,50.654396 220.017227,52.978085 216.853302,55.960880 
	C216.853302,38.041393 216.853302,20.839821 216.853302,3.436736 
	C211.404648,2.829701 206.413467,2.273634 201.711151,1.358783 
	C229.354233,1.000000 256.708466,1.000000 284.531342,0.999998 
z"/>
<path fill="#020000" opacity="1.000000" stroke="none" 
	d="
M51.545891,1.000000 
	C51.988422,1.454942 51.976845,1.909884 51.965267,2.364826 
	C48.449089,2.141544 44.932915,1.918261 41.708366,1.347489 
	C45.030594,1.000000 48.061188,1.000000 51.545891,1.000000 
z"/>
<path fill="#EE2B2F" opacity="1.000000" stroke="none" 
	d="
M94.999413,207.138824 
	C81.538071,207.138824 68.576538,207.138824 55.183624,207.138824 
	C55.183624,223.288483 55.183624,238.937576 55.183624,255.203323 
	C44.382961,255.203323 33.936680,255.271164 23.495085,255.081329 
	C22.609089,255.065216 21.000465,253.332138 20.995192,252.389618 
	C20.856478,227.596085 20.885138,202.801605 20.885138,177.199875 
	C23.425659,177.199875 25.524685,177.200317 27.623711,177.199814 
	C66.108421,177.190659 104.593140,177.186661 143.077850,177.167740 
	C150.830017,177.163925 152.408768,175.488235 152.018600,167.803192 
	C151.776245,163.029663 151.011856,158.212097 151.429916,153.498383 
	C151.751633,149.870926 149.806473,149.134399 147.391159,148.750854 
	C144.949661,148.363129 142.406952,148.587936 139.908554,148.587082 
	C102.090363,148.574081 64.272171,148.568100 26.453983,148.560562 
	C24.496431,148.560181 22.538879,148.560516 20.839888,148.560516 
	C20.839888,139.156662 20.990322,130.354645 20.769072,121.561996 
	C20.674818,117.816292 22.002634,116.692207 25.661863,116.699295 
	C71.271645,116.787659 116.881805,116.692650 162.491516,116.797325 
	C172.684067,116.820709 184.498703,124.640495 184.839813,140.466110 
	C185.159256,155.286713 185.101028,170.122406 184.864059,184.945953 
	C184.653290,198.131119 175.236053,207.610733 162.327744,207.167404 
	C160.542816,207.106094 158.753967,207.158936 155.684235,207.158936 
	C167.801208,223.586060 179.252640,239.110886 191.613144,255.868164 
	C186.411804,255.868164 182.835236,255.866882 179.258682,255.868408 
	C171.928299,255.871552 164.515350,255.193939 157.290298,256.068329 
	C149.764725,256.979095 145.864868,253.477188 142.180893,247.794601 
	C133.925217,235.060181 125.337013,222.537720 116.664047,210.082260 
	C115.646576,208.621048 113.297340,207.434387 111.481262,207.305283 
	C106.176773,206.928223 100.829643,207.151093 94.999413,207.138824 
z"/>
<path fill="#B93338" opacity="1.000000" stroke="none" 
	d="
M244.384842,47.032494 
	C247.603729,43.536102 251.172073,40.003181 255.097504,36.440540 
	C251.881165,39.939201 248.307739,43.467583 244.384842,47.032494 
z"/>
<path fill="#B93338" opacity="1.000000" stroke="none" 
	d="
M231.053085,69.455551 
	C228.241592,68.786423 225.267288,67.823097 227.157288,63.386604 
	C228.578613,65.185478 229.715698,67.186806 231.053085,69.455551 
z"/>
<path fill="#B93338" opacity="1.000000" stroke="none" 
	d="
M257.250671,34.664940 
	C258.351501,33.218502 259.753204,31.679356 261.476074,30.055489 
	C260.382050,31.504591 258.966797,33.038414 257.250671,34.664940 
z"/>
<path fill="#B93338" opacity="1.000000" stroke="none" 
	d="
M236.245514,54.804230 
	C237.068542,53.660904 238.205627,52.408012 239.659332,51.062725 
	C238.837143,52.211773 237.698349,53.453220 236.245514,54.804230 
z"/>
<path fill="#B93338" opacity="1.000000" stroke="none" 
	d="
M242.324127,48.971142 
	C242.521790,48.448528 243.017731,47.853180 243.790619,47.144691 
	C243.585846,47.653835 243.104126,48.276119 242.324127,48.971142 
z"/>
<path fill="#B93338" opacity="1.000000" stroke="none" 
	d="
M240.267151,50.876648 
	C240.472656,50.391975 240.974350,49.805660 241.760315,49.123817 
	C241.550827,49.610527 241.057083,50.192764 240.267151,50.876648 
z"/>
<path fill="#B93338" opacity="1.000000" stroke="none" 
	d="
M234.226883,56.807068 
	C234.418198,56.338020 234.893845,55.746296 235.643311,55.046165 
	C235.448471,55.519970 234.979843,56.102180 234.226883,56.807068 
z"/>
<path fill="#B93338" opacity="1.000000" stroke="none" 
	d="
M232.232071,58.817226 
	C232.424591,58.351120 232.899139,57.753281 233.652512,57.052841 
	C233.458908,57.528660 232.986511,58.107075 232.232071,58.817226 
z"/>
<path fill="#B93338" opacity="1.000000" stroke="none" 
	d="
M233.898834,71.722923 
	C233.136215,71.469360 232.269714,70.922234 231.329437,70.054291 
	C232.102097,70.298775 232.948502,70.864067 233.898834,71.722923 
z"/>
<path fill="#B93338" opacity="1.000000" stroke="none" 
	d="
M228.564423,62.275711 
	C228.827240,61.817287 229.355652,61.253635 230.188232,60.648659 
	C229.938278,61.128384 229.384125,61.649433 228.564423,62.275711 
z"/>
<path fill="#B93338" opacity="1.000000" stroke="none" 
	d="
M262.216797,29.653099 
	C262.405548,29.192640 262.853638,28.640236 263.561035,27.990932 
	C263.372284,28.449738 262.924194,29.005444 262.216797,29.653099 
z"/>
<path fill="#B93338" opacity="1.000000" stroke="none" 
	d="
M264.157013,27.717403 
	C264.357697,27.240919 264.827209,26.671114 265.569061,26.013449 
	C265.369568,26.491753 264.897675,27.057917 264.157013,27.717403 
z"/>
<path fill="#B93338" opacity="1.000000" stroke="none" 
	d="
M255.620209,36.361000 
	C255.657272,36.045189 255.928268,35.617859 256.433624,35.094421 
	C256.396698,35.415367 256.125427,35.832424 255.620209,36.361000 
z"/>
<path fill="#B93338" opacity="1.000000" stroke="none" 
	d="
M230.833466,60.389175 
	C230.882401,60.081390 231.174683,59.640858 231.707947,59.076046 
	C231.658234,59.386654 231.367523,59.821537 230.833466,60.389175 
z"/>
<path fill="#B93338" opacity="1.000000" stroke="none" 
	d="
M227.529877,63.277748 
	C227.483475,63.090839 227.696274,62.802929 228.152466,62.391754 
	C228.193619,62.571243 227.991348,62.873993 227.529877,63.277748 
z"/>
<path fill="#B93338" opacity="1.000000" stroke="none" 
	d="
M234.739243,72.587433 
	C234.562851,72.676399 234.357010,72.529015 234.085114,72.164001 
	C234.266449,72.041985 234.496704,72.176895 234.739243,72.587433 
z"/>
</svg>